<svg width="38" height="38" viewBox="0 0 38 38" fill="none" xmlns="http://www.w3.org/2000/svg">
<path d="M6.28125 9.32812C4.29688 11.9531 3.125 15.2188 3.125 18.75C3.125 27.375 10.125 34.375 18.75 34.375C27.375 34.375 34.375 27.375 34.375 18.75C34.375 10.125 27.375 3.125 18.75 3.125" stroke="white" stroke-width="2.34375" stroke-linecap="round" stroke-linejoin="round"/>
<path d="M7.8125 18.75C7.8125 24.7969 12.7031 29.6875 18.75 29.6875C24.7969 29.6875 29.6875 24.7969 29.6875 18.75C29.6875 12.7031 24.7969 7.8125 18.75 7.8125" stroke="white" stroke-width="2.34375" stroke-linecap="round" stroke-linejoin="round"/>
<path d="M18.75 25C22.2031 25 25 22.2031 25 18.75C25 15.2969 22.2031 12.5 18.75 12.5" stroke="white" stroke-width="2.34375" stroke-linecap="round" stroke-linejoin="round"/>
</svg>
