<svg width="38" height="38" viewBox="0 0 38 38" fill="none" xmlns="http://www.w3.org/2000/svg">
<path d="M14.0625 34.375H23.4375C31.25 34.375 34.375 31.25 34.375 23.4375V14.0625C34.375 6.25 31.25 3.125 23.4375 3.125H14.0625C6.25 3.125 3.125 6.25 3.125 14.0625V23.4375C3.125 31.25 6.25 34.375 14.0625 34.375Z" stroke="#2D2D2D" stroke-width="2.34375" stroke-linecap="round" stroke-linejoin="round"/>
<path d="M10.9375 13.6719C12.5 12.1094 15.0469 12.1094 16.625 13.6719" stroke="#2D2D2D" stroke-width="2.34375" stroke-miterlimit="10" stroke-linecap="round" stroke-linejoin="round"/>
<path d="M20.875 13.6719C22.4375 12.1094 24.9844 12.1094 26.5625 13.6719" stroke="#2D2D2D" stroke-width="2.34375" stroke-miterlimit="10" stroke-linecap="round" stroke-linejoin="round"/>
<path d="M13.125 27.6563H24.375C25.1563 27.6563 25.7812 27.0312 25.7812 26.25C25.7812 22.3594 22.6406 19.2188 18.75 19.2188C14.8594 19.2188 11.7188 22.3594 11.7188 26.25C11.7188 27.0312 12.3437 27.6563 13.125 27.6563Z" stroke="#2D2D2D" stroke-width="2.34375" stroke-miterlimit="10" stroke-linecap="round" stroke-linejoin="round"/>
</svg>
