<svg width="245" height="245" viewBox="0 0 245 245" fill="none" xmlns="http://www.w3.org/2000/svg">
<path d="M229.077 128.026C229.772 114.762 210.556 102.085 181.07 93.9128C186.028 82.9147 186.835 73.9276 182.36 68.9578C177.886 63.988 168.672 63.8475 157.042 67.7527C152.039 37.2103 141.38 16.492 128.023 15.792C114.667 15.092 101.806 34.7228 93.6398 64.7608C82.1101 59.3226 72.6584 58.305 67.5179 62.9391C62.5239 67.4359 62.4068 76.5347 66.2583 88.0815C36.5412 93.1859 16.4806 103.706 15.7918 116.848C15.103 129.991 34.2569 142.752 63.6781 150.932C57.9386 162.789 56.7721 172.535 61.4991 177.785C66.1821 182.986 75.8487 182.895 88.0706 178.556C93.1673 208.309 103.697 228.394 116.845 229.083C129.993 229.772 142.464 211.043 150.65 182.184C161.986 187.444 171.262 188.377 176.342 183.803C181.567 179.098 181.45 169.366 177.053 157.06C207.629 152.064 228.382 141.395 229.082 128.027L229.077 128.026Z" fill="#353151"/>
</svg>
