<svg width="245" height="245" viewBox="0 0 245 245" fill="none" xmlns="http://www.w3.org/2000/svg">
<path d="M191.664 112.7C197.166 108.164 201.669 103.707 204.714 99.5629C221.317 76.9256 216.884 44.5104 194.814 27.1612C172.743 9.81207 141.393 14.0989 124.79 36.7361C120.854 42.1034 117.072 50.108 113.64 59.6098C107.785 51.3842 101.992 44.6825 96.7594 40.569C74.6891 23.2199 43.3385 27.5067 26.7359 50.1439C10.1332 72.7812 14.5656 105.196 36.6359 122.546C40.6826 125.727 46.2156 128.804 52.7335 131.698C47.2315 136.234 42.7288 140.691 39.6838 144.835C23.0811 167.472 27.5135 199.888 49.5839 217.237C71.6542 234.586 103.005 230.299 119.607 207.662C123.544 202.295 127.326 194.29 130.757 184.788C136.613 193.014 142.405 199.709 147.638 203.829C169.709 221.178 201.059 216.891 217.662 194.254C234.265 171.617 229.832 139.202 207.762 121.853C203.715 118.671 198.182 115.594 191.664 112.7Z" fill="#353151"/>
</svg>
