<svg width="301" height="301" viewBox="0 0 301 301" fill="none" xmlns="http://www.w3.org/2000/svg">
<path d="M210.005 184.793C223.797 178.829 236.194 172.185 246.544 165.139C277.027 144.385 279.978 127.155 277.089 116.352C274.196 105.554 263.034 92.1041 226.264 89.3369C213.778 88.399 199.718 88.8374 184.792 90.5515C178.828 76.7588 172.185 64.3619 165.139 54.0117C144.386 23.5296 127.156 20.5782 116.354 23.468C105.556 26.3605 92.1007 37.5204 89.3376 74.2934C88.3994 86.7796 88.8376 100.84 90.5513 115.766C76.7587 121.73 64.3618 128.374 54.0116 135.42C23.5322 156.169 20.5778 173.404 23.47 184.202C25.032 190.041 29.0071 196.656 38.151 201.94C45.9162 206.428 57.3985 209.953 74.2916 211.222C86.7776 212.16 100.838 211.722 115.764 210.007C121.728 223.8 128.371 236.197 135.417 246.547C144.951 260.551 153.738 268.739 161.503 273.227C170.642 278.509 178.363 278.653 184.202 277.091C195.002 274.206 208.455 263.039 211.22 226.273C212.159 213.787 211.72 199.726 210.007 184.801L210.005 184.793ZM258.299 121.383C260.786 130.682 242.245 148.853 207.034 164.881C205.362 155.664 203.265 146.252 200.733 136.786C198.201 127.321 195.322 118.114 192.166 109.297C230.674 105.61 255.813 112.091 258.296 121.388L258.299 121.383ZM188.638 172.445C179.472 175.853 169.503 179.058 158.75 181.938C148.001 184.814 137.758 187.012 128.114 188.636C124.707 179.47 121.502 169.5 118.622 158.748C115.747 147.998 113.549 137.755 111.925 128.112C121.092 124.704 131.061 121.499 141.813 118.619C152.563 115.743 162.798 113.547 172.437 111.92C175.849 121.089 179.062 131.044 181.936 141.806C184.812 152.556 187.009 162.799 188.634 172.442L188.638 172.445ZM121.393 42.2636C123.66 41.6574 126.45 42.2992 129.605 44.1224C139.409 49.7886 152.739 66.925 164.858 93.5285C155.648 95.199 146.248 97.2966 136.791 99.8267C127.325 102.359 118.119 105.238 109.302 108.394C105.61 69.8836 112.097 44.7465 121.396 42.2588L121.393 42.2636ZM42.2696 179.177C39.7822 169.878 58.3236 151.707 93.5342 135.678C95.2066 144.896 97.3032 154.308 99.8351 163.773C102.367 173.239 105.246 182.445 108.402 191.262C69.8945 194.95 44.7578 188.464 42.2676 179.169L42.2696 179.177ZM179.18 258.299C169.881 260.786 151.711 242.245 135.683 207.035C144.9 205.362 154.312 203.265 163.778 200.733C173.243 198.201 182.449 195.321 191.266 192.165C194.958 230.676 188.471 255.813 179.172 258.301L179.18 258.299Z" fill="#A75944" fill-opacity="0.3"/>
</svg>
