<svg width="38" height="38" viewBox="0 0 38 38" fill="none" xmlns="http://www.w3.org/2000/svg">
<path d="M20.3281 4.5625L29.5469 8.65625C32.2031 9.82812 32.2031 11.7656 29.5469 12.9375L20.3281 17.0312C19.2813 17.5 17.5625 17.5 16.5156 17.0312L7.29688 12.9375C4.64063 11.7656 4.64063 9.82812 7.29688 8.65625L16.5156 4.5625C17.5625 4.09375 19.2813 4.09375 20.3281 4.5625Z" stroke="white" stroke-width="2.34375" stroke-linecap="round" stroke-linejoin="round"/>
<path d="M4.6875 17.1875C4.6875 18.5 5.67188 20.0156 6.875 20.5469L17.4844 25.2656C18.2969 25.625 19.2188 25.625 20.0156 25.2656L30.625 20.5469C31.8281 20.0156 32.8125 18.5 32.8125 17.1875" stroke="white" stroke-width="2.34375" stroke-linecap="round" stroke-linejoin="round"/>
<path d="M4.6875 25C4.6875 26.4531 5.54688 27.7656 6.875 28.3594L17.4844 33.0781C18.2969 33.4375 19.2188 33.4375 20.0156 33.0781L30.625 28.3594C31.9531 27.7656 32.8125 26.4531 32.8125 25" stroke="white" stroke-width="2.34375" stroke-linecap="round" stroke-linejoin="round"/>
</svg>
