<svg width="30" height="30" viewBox="0 0 30 30" fill="none" xmlns="http://www.w3.org/2000/svg">
<path d="M25.0005 16.25C24.3101 16.25 23.7505 15.6904 23.7505 15C23.7505 14.3096 24.3101 13.75 25.0005 13.75C25.6908 13.75 26.2505 14.3096 26.2505 15C26.2505 15.6904 25.6908 16.25 25.0005 16.25Z" fill="white"/>
<path d="M20.1255 13.75H5.00049C4.37549 13.75 3.87549 14.25 3.87549 14.875V15C3.87549 15.625 4.37549 16.125 5.00049 16.125H20.1255C20.7505 16.25 21.2505 15.75 21.2505 15.125V15C21.2505 14.25 20.7505 13.75 20.1255 13.75Z" fill="white"/>
<path d="M25.1255 20H5.00049C4.37549 20 3.87549 20.5 3.87549 21.125V21.25C3.87549 21.875 4.37549 22.375 5.00049 22.375H25.1255C25.7505 22.5 26.2505 22 26.2505 21.375V21.25C26.2505 20.5 25.7505 20 25.1255 20Z" fill="white"/>
<path d="M25.1255 7.5H5.00049C4.25049 7.5 3.75049 8 3.75049 8.625V8.75C3.75049 9.5 4.25049 10 4.87549 10H25.1255C25.7505 10 26.2505 9.5 26.2505 8.875V8.625C26.2505 8 25.7505 7.5 25.1255 7.5Z" fill="white"/>
</svg>
