<svg width="38" height="38" viewBox="0 0 38 38" fill="none" xmlns="http://www.w3.org/2000/svg">
<path d="M26.9062 3.125H14C13.375 3.125 12.7813 3.34376 12.2969 3.71876L8.875 6.45313C7.5 7.54688 7.5 9.62498 8.875 10.7187L12.2969 13.4531C12.7813 13.8437 13.3907 14.0469 14 14.0469H26.9062C28.4218 14.0469 29.6406 12.8281 29.6406 11.3125V5.84373C29.6406 4.34373 28.4218 3.125 26.9062 3.125Z" stroke="white" stroke-width="2.34375" stroke-linecap="round" stroke-linejoin="round"/>
<path d="M10.625 18.75H23.5313C24.1563 18.75 24.7501 18.9688 25.2344 19.3438L28.6563 22.0781C30.0313 23.1719 30.0313 25.25 28.6563 26.3437L25.2344 29.0781C24.7501 29.4687 24.1406 29.6719 23.5313 29.6719H10.625C9.10937 29.6719 7.89062 28.4531 7.89062 26.9375V21.4687C7.89062 19.9687 9.10937 18.75 10.625 18.75Z" stroke="white" stroke-width="2.34375" stroke-linecap="round" stroke-linejoin="round"/>
<path d="M18.75 18.75V14.0625" stroke="white" stroke-width="2.34375" stroke-linecap="round" stroke-linejoin="round"/>
<path d="M18.75 34.375V29.6875" stroke="white" stroke-width="2.34375" stroke-linecap="round" stroke-linejoin="round"/>
<path d="M14.0625 34.375H23.4375" stroke="white" stroke-width="2.34375" stroke-linecap="round" stroke-linejoin="round"/>
</svg>
