<svg width="18" height="18" viewBox="0 0 18 18" fill="none" xmlns="http://www.w3.org/2000/svg">
<g clip-path="url(#clip0_2005_937)">
<path d="M17.7221 1.78816C17.5021 1.51927 17.1728 1.37109 16.7948 1.37109C16.589 1.37109 16.3714 1.41449 16.1475 1.49991L0.910791 7.31621C0.102201 7.62479 -0.00670084 8.08786 0.000302908 8.33656C0.00730666 8.58513 0.142301 9.04134 0.967096 9.30363C0.97204 9.30528 0.976984 9.30666 0.981928 9.30817L3.11876 9.91956L13.5255 4.60286C13.7848 4.4702 14.1026 4.5732 14.2351 4.83261C14.3392 5.03641 14.2974 5.27591 14.1491 5.43356L14.1495 5.43398L8.36334 11.5821L8.19827 12.251L10.2645 13.9149L13.1278 16.2205C13.1303 16.2224 13.1328 16.2245 13.1354 16.2264C13.4504 16.4708 13.7945 16.5999 14.1306 16.6001C14.7873 16.6001 15.3101 16.1141 15.4624 15.362L17.9589 3.03484C18.059 2.54018 17.975 2.09729 17.7221 1.78816Z" fill="#2D2D2D"/>
<path d="M7.37288 11.195C7.39389 11.1097 7.43619 11.0284 7.5006 10.9599L11.2973 6.92554L4.25195 10.5249L5.85169 15.1001C5.94288 15.3607 6.07856 15.5826 6.24638 15.7563L7.37261 11.1948L7.37288 11.195Z" fill="#2D2D2D"/>
<path d="M7.22852 16.1799C7.60878 16.1768 7.98245 16.0164 8.30984 15.7149L9.48029 14.6372L7.91969 13.3806L7.22852 16.1799Z" fill="#2D2D2D"/>
</g>
<defs>
<clipPath id="clip0_2005_937">
<rect width="18" height="18" fill="white"/>
</clipPath>
</defs>
</svg>
