<svg width="166" height="166" viewBox="0 0 166 166" fill="none" xmlns="http://www.w3.org/2000/svg">
<path d="M34.5681 60.8797C34.7288 60.4771 34.9684 60.1487 35.2868 59.8945C35.603 59.646 35.9595 59.4858 36.3562 59.4141C36.7564 59.3504 37.1578 59.3988 37.5605 59.5596C37.9631 59.7203 38.2875 59.9616 38.5338 60.2834C38.7778 60.6109 38.926 60.9725 38.9784 61.3682C39.0342 61.7718 38.9818 62.1749 38.8211 62.5775C38.6717 62.9518 38.44 63.2603 38.1261 63.5032C37.8179 63.7483 37.4648 63.8999 37.0669 63.958C36.6667 64.0218 36.2653 63.9733 35.8627 63.8126C35.46 63.6518 35.1356 63.4106 34.8893 63.0887C34.6465 62.7748 34.4949 62.4217 34.4345 62.0295C34.3742 61.6372 34.4187 61.254 34.5681 60.8797ZM26.6817 76.0313L39.8702 76.0324L39.8695 84.4034L38.3217 84.4033L38.3223 77.6625L34.8145 77.6622L34.8142 81.2433C34.8142 81.3715 34.8081 81.5241 34.7958 81.7012C34.7897 81.8783 34.7744 82.0492 34.75 82.2141C34.6644 82.9101 34.4324 83.4993 34.0538 83.9816C33.6813 84.4701 33.208 84.8394 32.6341 85.0897C32.0601 85.3461 31.4312 85.4743 30.7474 85.4742C30.0696 85.4742 29.4438 85.349 28.8698 85.0986C28.2959 84.8482 27.8197 84.4787 27.4412 83.9902C27.0688 83.5079 26.8368 82.9156 26.7453 82.2134C26.727 82.0485 26.7117 81.8776 26.6995 81.7005C26.6873 81.5234 26.6812 81.3708 26.6812 81.2426L26.6817 76.0313ZM28.2294 77.6616L28.2291 81.1877C28.2291 81.3038 28.2352 81.435 28.2474 81.5816C28.2596 81.7342 28.2779 81.8777 28.3023 82.012C28.4304 82.6471 28.7326 83.105 29.2089 83.3859C29.6912 83.6668 30.2041 83.8073 30.7475 83.8074C31.3031 83.8074 31.816 83.667 32.2862 83.3862C32.7625 83.1054 33.0647 82.6474 33.193 82.0125C33.2236 81.8781 33.2419 81.7346 33.248 81.582C33.2602 81.4355 33.2664 81.3042 33.2664 81.1882L33.2667 77.6621L28.2294 77.6616ZM27.7473 94.5667C27.5148 93.6242 27.519 92.749 27.76 91.9412C28.0084 91.1378 28.4578 90.4484 29.1082 89.8729C29.7646 89.296 30.5937 88.884 31.5956 88.6369C32.6449 88.3781 33.5994 88.347 34.4592 88.5438C35.3249 88.739 36.05 89.1293 36.6346 89.7146C37.2266 90.3044 37.6373 91.0647 37.8669 91.9954C38.1052 92.9617 38.0854 93.8376 37.8075 94.623C37.531 95.4144 37.0224 96.0807 36.2817 96.6218C35.5425 97.1689 34.598 97.5591 33.4481 97.7924L33.0533 96.1918L33.6224 96.0514C34.7977 95.7427 35.6188 95.2855 36.0858 94.6798C36.5586 94.0726 36.6824 93.3126 36.4573 92.3997C36.216 91.4215 35.7183 90.755 34.9642 90.4002C34.2101 90.0453 33.2461 90.0127 32.0724 90.3022C30.9401 90.5814 30.1256 91.0527 29.6289 91.7161C29.1321 92.3794 29 93.1824 29.2325 94.125C29.3889 94.7593 29.6702 95.2748 30.0761 95.6714C30.4821 96.0681 30.9907 96.3326 31.6019 96.4648L31.4523 98.1148C30.5125 97.9504 29.7155 97.5495 29.0615 96.9122C28.4149 96.2793 27.9768 95.4975 27.7473 94.5667ZM31.4962 89.8783L32.7677 89.5647L34.5179 96.6607L33.2463 96.9743L31.4962 89.8783ZM31.8685 106.672C31.4254 105.801 31.2213 104.936 31.2561 104.075C31.2964 103.212 31.5501 102.418 32.0174 101.694L33.3582 102.471C33.0373 103.039 32.8598 103.612 32.8257 104.191C32.797 104.767 32.9281 105.341 33.2189 105.913C33.5235 106.511 33.9019 106.918 34.354 107.133C34.8115 107.346 35.2743 107.333 35.7423 107.095C36.0905 106.918 36.3129 106.695 36.4093 106.426C36.5056 106.158 36.5061 105.843 36.4107 105.48C36.3153 105.118 36.1526 104.711 35.9228 104.259L35.4575 103.345L36.6574 102.734L37.1185 103.64C37.4093 104.212 37.7386 104.63 38.1064 104.895C38.4742 105.16 38.8812 105.179 39.3274 104.952C39.7845 104.719 40.0306 104.381 40.0656 103.939C40.1089 103.499 40.0129 103.047 39.7775 102.585C39.5282 102.095 39.1866 101.68 38.7528 101.339C38.3243 100.995 37.8733 100.742 37.3998 100.578L37.9387 99.1943C38.6394 99.4132 39.2658 99.7555 39.8179 100.221C40.3783 100.69 40.8372 101.275 41.1944 101.977C41.4825 102.543 41.6449 103.111 41.6817 103.681C41.7268 104.255 41.6267 104.778 41.3816 105.252C41.1447 105.729 40.7515 106.107 40.2019 106.387C39.7339 106.625 39.2622 106.728 38.7869 106.696C38.3115 106.664 37.8298 106.505 37.3417 106.219L37.8268 105.9C37.9225 106.304 37.9129 106.682 37.798 107.035C37.6913 107.391 37.5093 107.706 37.2518 107.981C36.9944 108.256 36.6942 108.481 36.3514 108.655C35.7746 108.949 35.2019 109.048 34.6332 108.954C34.0728 108.862 33.5508 108.618 33.0674 108.22C32.5894 107.819 32.1898 107.303 31.8685 106.672ZM36.3762 114.33L44.0548 108.095L48.3849 113.427L47.1833 114.403L43.8809 110.336L37.4039 115.596L36.3762 114.33ZM47.3597 126.22C46.6287 125.648 46.1542 124.986 45.9363 124.235C45.722 123.478 45.7277 122.688 45.9534 121.864C46.1876 121.04 46.6075 120.24 47.2132 119.466C47.8264 118.682 48.5032 118.08 49.2433 117.659C49.9884 117.241 50.7501 117.05 51.5287 117.086C52.312 117.125 53.0692 117.43 53.8002 118.002C54.5215 118.567 55.0008 119.232 55.238 119.999C55.4838 120.765 55.5035 121.567 55.2971 122.406C55.0908 123.245 54.6828 124.053 54.0734 124.833C53.4639 125.612 52.7771 126.202 52.0128 126.604C51.2486 127.007 50.4614 127.185 49.6513 127.141C48.8497 127.095 48.0859 126.788 47.3597 126.22ZM41.2351 126.662L50.0385 115.408L51.1855 116.306L46.6991 122.041L46.8434 122.153L42.5263 127.672L41.2351 126.662ZM48.1209 124.92C48.6354 125.323 49.1626 125.526 49.7024 125.53C50.2422 125.533 50.7693 125.38 51.2837 125.069C51.8019 124.753 52.2774 124.319 52.71 123.766C53.1389 123.218 53.4422 122.657 53.62 122.082C53.8026 121.512 53.8224 120.962 53.6793 120.431C53.541 119.904 53.2073 119.434 52.6783 119.02C52.1734 118.625 51.6572 118.423 51.1297 118.413C50.606 118.399 50.0894 118.549 49.5797 118.864C49.0739 119.173 48.5952 119.617 48.1438 120.194C47.6998 120.761 47.3823 121.331 47.1911 121.902C47.0085 122.472 46.9858 123.017 47.1231 123.535C47.2641 124.048 47.5967 124.51 48.1209 124.92ZM57.6364 133.01C56.9628 132.707 56.4529 132.33 56.1066 131.88C55.7685 131.426 55.574 130.943 55.5232 130.432C55.478 129.922 55.5644 129.426 55.7825 128.941C55.9956 128.468 56.269 128.099 56.6026 127.834C56.9443 127.566 57.3307 127.392 57.762 127.311C58.1958 127.225 58.671 127.219 59.1877 127.29C59.669 127.367 60.1929 127.482 60.7594 127.637C61.334 127.788 61.9104 127.951 62.4886 128.124C63.0668 128.297 63.6075 128.457 64.1109 128.603L63.4372 128.672C63.815 127.878 63.9205 127.212 63.7539 126.675C63.5928 126.14 63.1003 125.688 62.2764 125.316C61.7308 125.071 61.1956 124.98 60.6708 125.045C60.154 125.107 59.6868 125.379 59.2691 125.861L58.0495 124.799C58.6227 124.106 59.3226 123.675 60.1492 123.505C60.9758 123.335 61.8985 123.479 62.9173 123.938C63.7357 124.306 64.3708 124.77 64.8225 125.328C65.2823 125.883 65.5073 126.514 65.4977 127.219C65.5004 127.555 65.4444 127.895 65.3299 128.238C65.2179 128.576 65.0817 128.923 64.9212 129.28L62.4091 134.858L61.0897 134.264L62.0637 132.101L62.2824 132.441C61.6144 133.017 60.8901 133.354 60.1098 133.451C59.3349 133.551 58.5105 133.404 57.6364 133.01ZM58.4222 131.868C58.9567 132.108 59.4614 132.222 59.9364 132.208C60.4194 132.191 60.8508 132.081 61.2306 131.877C61.6129 131.667 61.9242 131.392 62.1646 131.052C62.3735 130.811 62.5571 130.522 62.7156 130.185C62.8822 129.845 63.0069 129.583 63.0896 129.399L63.5058 129.858C62.9914 129.706 62.4865 129.556 61.9913 129.407C61.4961 129.257 61.0234 129.125 60.5732 129.009C60.1256 128.888 59.7135 128.8 59.3368 128.744C59.0567 128.711 58.7806 128.708 58.5083 128.732C58.2416 128.759 57.9975 128.84 57.7762 128.975C57.5629 129.107 57.3923 129.315 57.2644 129.598C57.1541 129.843 57.1101 130.105 57.1323 130.383C57.16 130.663 57.2734 130.932 57.4724 131.189C57.6769 131.448 57.9936 131.675 58.4222 131.868ZM67.4724 136.805L69.2623 127.077L70.8656 127.372L70.1116 131.47L75.2278 132.412L75.9819 128.313L77.5852 128.608L75.7954 138.336L74.192 138.041L74.9478 133.934L69.8315 132.992L69.0758 137.1L67.4724 136.805ZM88.8396 128.68L89.4434 138.552L87.8711 138.649L87.426 131.372L82.6969 138.965L81.3531 139.047L80.7492 129.174L82.3216 129.078L82.7605 136.254L87.5049 128.761L88.8396 128.68ZM100.716 136.17L99.6742 132.763C99.4071 133.017 99.0658 133.268 98.6501 133.517C98.2403 133.764 97.7814 133.965 97.2734 134.12C96.31 134.415 95.4674 134.436 94.7455 134.184C94.0236 133.933 93.4481 133.429 93.0188 132.672C92.8913 132.443 92.7757 132.201 92.6719 131.945C92.5741 131.688 92.4892 131.452 92.4173 131.238C92.3453 131.024 92.2942 130.867 92.2639 130.768L91.6049 128.613L93.1814 128.131L93.8403 130.285C93.8921 130.455 93.9623 130.663 94.0507 130.911C94.1374 131.152 94.2398 131.383 94.358 131.602C94.6515 132.144 95.0269 132.505 95.484 132.685C95.947 132.862 96.5171 132.848 97.1944 132.64C97.6498 132.501 98.0524 132.314 98.402 132.08C98.7517 131.845 99.0284 131.591 99.2322 131.318L97.8233 126.711L99.391 126.232L102.284 135.691L100.716 136.17ZM107.554 133.762L102.493 125.264L103.893 124.429L106.026 128.01L110.495 125.348L108.363 121.767L109.763 120.933L114.825 129.431L113.424 130.266L111.287 126.677L106.818 129.339L108.955 132.928L107.554 133.762ZM119.464 126.283L112.377 119.384L113.521 118.21L116.085 120.71L117.14 119.628C117.34 119.423 117.549 119.217 117.767 119.012C117.985 118.806 118.186 118.639 118.37 118.512C118.802 118.217 119.24 118.017 119.683 117.913C120.127 117.808 120.572 117.824 121.018 117.961C121.465 118.098 121.909 118.381 122.35 118.812C122.962 119.409 123.292 120.041 123.339 120.71C123.386 121.37 123.219 122.013 122.838 122.64C122.707 122.853 122.537 123.08 122.329 123.32C122.12 123.551 121.918 123.768 121.722 123.969L119.464 126.283ZM119.639 124.176L120.777 123.009C120.905 122.878 121.043 122.727 121.192 122.557C121.341 122.387 121.46 122.221 121.549 122.06C121.701 121.773 121.766 121.449 121.744 121.086C121.726 120.72 121.538 120.361 121.18 120.012C120.817 119.658 120.452 119.473 120.085 119.456C119.722 119.434 119.373 119.534 119.039 119.754C118.885 119.851 118.735 119.965 118.59 120.096C118.445 120.227 118.311 120.356 118.187 120.483L117.049 121.65L119.639 124.176ZM125.399 120.199L118.317 113.292L119.456 112.125L126.537 119.032L125.399 120.199ZM122.684 105.659C122.459 106.057 122.155 106.366 121.772 106.584C121.389 106.803 120.98 106.919 120.544 106.932C120.104 106.943 119.681 106.834 119.277 106.606L119.926 105.457C120.208 105.617 120.507 105.652 120.823 105.564C121.139 105.476 121.377 105.292 121.536 105.01C121.698 104.723 121.733 104.424 121.643 104.113C121.555 103.797 121.37 103.559 121.088 103.4L121.737 102.252C122.141 102.48 122.452 102.786 122.671 103.168C122.887 103.543 122.999 103.953 123.006 104.399C123.017 104.84 122.909 105.26 122.684 105.659ZM125.576 102.885L134.188 107.75L133.414 109.122L127.066 105.536L130.864 113.635L130.202 114.807L121.589 109.942L122.364 108.571L128.624 112.107L124.919 104.049L125.576 102.885ZM135.974 90.9435C135.913 91.3728 135.758 91.7487 135.509 92.0713C135.261 92.3878 134.953 92.628 134.585 92.7919C134.211 92.9489 133.81 92.9972 133.38 92.9367C132.951 92.8762 132.579 92.7189 132.263 92.4648C131.948 92.2046 131.718 91.8886 131.573 91.5167C131.423 91.1379 131.378 90.7339 131.439 90.3046C131.495 89.9056 131.647 89.5508 131.894 89.2404C132.135 88.9291 132.442 88.6979 132.815 88.5469C133.189 88.3899 133.59 88.3417 134.019 88.4021C134.449 88.4626 134.821 88.6199 135.137 88.8741C135.447 89.1213 135.678 89.4282 135.83 89.7949C135.982 90.1616 136.03 90.5445 135.974 90.9435ZM138.89 70.0017L137.152 70.4517C137.434 71.0787 137.569 71.7189 137.555 72.3721C137.54 73.0194 137.381 73.6375 137.08 74.2265C136.771 74.8111 136.312 75.3303 135.704 75.7842C135.097 76.238 134.34 76.5821 133.436 76.8163C132.526 77.052 131.695 77.119 130.943 77.0172C130.186 76.917 129.53 76.6863 128.976 76.3252C128.414 75.9597 127.97 75.4977 127.642 74.9392C127.307 74.3763 127.111 73.7523 127.054 73.0671L126.123 73.3082L125.716 71.7388L126.647 71.4978C126.365 70.8707 126.234 70.2299 126.253 69.5751C126.267 68.9219 126.431 68.3022 126.746 67.7161C127.054 67.1256 127.514 66.6026 128.128 66.1473C128.736 65.6934 129.495 65.3486 130.405 65.1129C131.31 64.8787 132.138 64.8124 132.889 64.9142C133.641 65.016 134.294 65.2504 134.85 65.6174C135.398 65.9801 135.837 66.4436 136.166 67.008C136.495 67.5724 136.688 68.1972 136.746 68.8824L138.483 68.4324L138.89 70.0017ZM135.671 70.8352L128.508 72.6905C128.566 73.2557 128.73 73.7334 129.002 74.1236C129.266 74.5094 129.607 74.8056 130.027 75.0124C130.439 75.2147 130.901 75.3315 131.413 75.3628C131.926 75.394 132.46 75.3376 133.016 75.1937C133.566 75.0514 134.054 74.8429 134.481 74.5683C134.908 74.2937 135.25 73.9687 135.506 73.5933C135.76 73.2121 135.906 72.7895 135.944 72.3257C135.98 71.8559 135.889 71.3591 135.671 70.8352ZM135.265 69.2659C135.2 68.6963 135.038 68.2178 134.78 67.8305C134.516 67.4447 134.183 67.1462 133.781 66.9348C133.38 66.7235 132.929 66.6007 132.428 66.5664C131.921 66.5336 131.399 66.5869 130.861 66.7262C130.317 66.867 129.829 67.0755 129.396 67.3517C128.957 67.6293 128.604 67.9603 128.338 68.3447C128.065 68.7305 127.902 69.1577 127.846 69.6261C127.791 70.0945 127.876 70.5929 128.101 71.1212L135.265 69.2659ZM138.805 55.4084L133.331 56.2799L134.66 55.5042L127.502 64.4667L126.665 62.9723L132.466 55.8407L132.752 56.3521L123.743 57.7541L122.934 56.3077L138.031 54.026L138.805 55.4084ZM129.078 47.6488L121.827 54.376L120.718 53.1808L123.773 50.3467L120.235 46.5329L117.18 49.3671L116.071 48.1719L123.323 41.4447L124.432 42.6399L121.37 45.4803L124.908 49.294L127.97 46.4537L129.078 47.6488ZM119.303 37.5361L113.759 45.7281L112.393 44.8055L115.059 40.8587L108.955 42.4835L107.202 41.2994L113.59 39.6458L112.312 32.8152L114.202 34.0915L115.264 40.5551L117.929 36.6083L119.303 37.5361ZM101.592 26.2056L100.956 27.9234L108.866 30.8521L105.432 40.1282L103.903 39.5622L106.8 31.7376L102.257 30.0554L99.3596 37.88L97.8308 37.3139L100.75 29.4293L98.9119 28.7488L100.063 25.6396L101.592 26.2056ZM85.999 35.0669L87.0494 25.2314L88.6158 25.3987L87.8416 32.6478L93.7703 25.9492L95.109 26.0921L94.0586 35.9276L92.4922 35.7603L93.2557 28.6114L87.3286 35.2089L85.999 35.0669ZM77.2298 25.243C78.2037 25.1094 79.0749 25.2148 79.8432 25.5592C80.6055 25.9045 81.2307 26.4412 81.7189 27.1692C82.2071 27.8972 82.5205 28.7664 82.6592 29.7766C82.8003 30.8049 82.7304 31.7328 82.4495 32.5602C82.1686 33.3876 81.7038 34.0646 81.055 34.5913C80.407 35.1239 79.6051 35.4558 78.6494 35.587C77.6694 35.7215 76.7953 35.6165 76.0269 35.272C75.2594 34.9336 74.6346 34.4 74.1524 33.6711C73.6651 32.9491 73.3521 32.083 73.2135 31.0728C73.0732 30.0505 73.14 29.1231 73.414 28.2904C73.6889 27.4639 74.1499 26.7812 74.797 26.2425C75.445 25.7098 76.2559 25.3767 77.2298 25.243ZM77.4403 26.7765C76.424 26.9159 75.7144 27.3584 75.3113 28.104C74.9083 28.8496 74.7806 29.7608 74.9284 30.8375C75.0803 31.9445 75.4521 32.7902 76.0439 33.3746C76.6364 33.965 77.4348 34.1914 78.4389 34.0535C79.1225 33.9597 79.6639 33.7283 80.0631 33.3592C80.4624 32.9901 80.7335 32.5184 80.8766 31.9441C81.0196 31.3698 81.0422 30.7257 80.9442 30.0119C80.7931 28.911 80.4179 28.0627 79.8184 27.467C79.219 26.8713 78.4263 26.6412 77.4403 26.7765ZM67.583 27.1576L71.2775 36.3332L69.7652 36.9421L68.2087 33.0765L63.3831 35.0195L64.9395 38.8851L63.4272 39.494L59.7328 30.3184L61.2451 29.7095L62.805 33.5837L67.6306 31.6407L66.0708 27.7665L67.583 27.1576ZM52.2066 34.1156C52.8061 33.6839 53.3876 33.4308 53.9509 33.3562C54.5128 33.2902 55.028 33.3632 55.4965 33.575C55.9601 33.7905 56.3471 34.1137 56.6575 34.5448C56.9608 34.966 57.1437 35.3873 57.2064 35.8087C57.2676 36.2386 57.2252 36.6603 57.0791 37.074C56.9366 37.4926 56.705 37.9076 56.3843 38.3191C56.0777 38.6979 55.7158 39.0939 55.2986 39.5071C54.88 39.9289 54.4511 40.3468 54.0119 40.7609C53.5726 41.1749 53.1639 41.5633 52.7855 41.926L53.0632 41.3085C53.562 42.0328 54.0857 42.457 54.6341 42.5813C55.1776 42.7091 55.816 42.509 56.5494 41.981C57.035 41.6314 57.3808 41.2131 57.5869 40.7261C57.7917 40.2476 57.79 39.7071 57.5819 39.1046L59.1109 38.5792C59.4243 39.422 59.448 40.2438 59.182 41.0448C58.916 41.8457 58.3296 42.5726 57.4229 43.2255C56.6945 43.75 55.9756 44.0682 55.2662 44.1802C54.5555 44.3007 53.897 44.1804 53.2909 43.8193C52.9986 43.6536 52.7323 43.4352 52.4921 43.1643C52.2554 42.8983 52.0229 42.6068 51.7946 42.2896L48.2197 37.3247L49.3941 36.4791L50.7801 38.4042L50.3767 38.4238C50.2116 37.5571 50.282 36.7615 50.5881 36.037C50.8891 35.3162 51.4286 34.6757 52.2066 34.1156ZM52.8033 35.3675C52.3276 35.71 51.977 36.0903 51.7514 36.5086C51.5245 36.9353 51.4044 37.3641 51.3911 37.795C51.3814 38.2308 51.4638 38.638 51.6385 39.0163C51.7425 39.3176 51.9009 39.6211 52.1136 39.927C52.3249 40.2413 52.4894 40.4802 52.6071 40.6438L52.0018 40.7749C52.3901 40.405 52.7727 40.043 53.1497 39.6888C53.5266 39.3346 53.8778 38.9915 54.203 38.6595C54.5318 38.3325 54.8146 38.0198 55.0512 37.7215C55.2193 37.4952 55.3607 37.2579 55.4755 37.0098C55.5853 36.7652 55.6372 36.5134 55.6312 36.2543C55.6239 36.0038 55.5293 35.7522 55.3473 35.4995C55.1903 35.2815 54.986 35.1126 54.7343 34.9929C54.4776 34.8767 54.1882 34.8406 53.8661 34.8844C53.5391 34.9317 53.1848 35.0928 52.8033 35.3675ZM44.5813 40.0391L45.6202 40.9794C45.3246 41.2059 45.1472 41.4201 45.0881 41.6219C45.0294 41.8323 45.0577 42.0514 45.1728 42.2791C45.2883 42.5154 45.4614 42.7791 45.692 43.0702C46.0524 43.5364 46.4729 44.0363 46.9534 44.57C47.4298 45.1083 47.9621 45.6848 48.5504 46.2995C49.1391 46.9229 49.7772 47.5828 50.4647 48.2791L45.8246 53.4059L38.4908 46.7685L39.5848 45.5598L45.7709 51.1586L48.3214 48.3405C47.9295 47.9364 47.5325 47.5153 47.1302 47.0771C46.7239 46.6435 46.3309 46.2178 45.9513 45.8001C45.5762 45.3865 45.2324 44.993 44.9198 44.6195C44.6077 44.2547 44.3472 43.9283 44.1383 43.6405C43.7725 43.1529 43.5257 42.7113 43.3979 42.3157C43.2746 41.9241 43.3056 41.5486 43.4909 41.1893C43.6716 40.8258 44.0351 40.4424 44.5813 40.0391Z" fill="white"/>
<path d="M80.5111 75.9085C81.1119 74.1503 83.5412 74.097 84.2535 75.7488L84.3138 75.9095L85.1246 78.2806C85.3104 78.8243 85.6107 79.3219 86.0051 79.7398C86.3996 80.1577 86.8791 80.4861 87.4113 80.7029L87.6293 80.7842L90.0003 81.594C91.7585 82.1948 91.8118 84.6242 90.1611 85.3365L90.0003 85.3968L87.6293 86.2075C87.0853 86.3932 86.5875 86.6934 86.1695 87.0879C85.7514 87.4824 85.4229 87.9619 85.206 88.4942L85.1246 88.7112L84.3148 91.0833C83.714 92.8415 81.2847 92.8947 80.5734 91.244L80.5111 91.0833L79.7013 88.7122C79.5156 88.1683 79.2154 87.6705 78.8209 87.2524C78.4265 86.8344 77.9469 86.5058 77.4146 86.2889L77.1976 86.2075L74.8265 85.3978C73.0673 84.797 73.0141 82.3676 74.6658 81.6563L74.8265 81.594L77.1976 80.7842C77.7414 80.5984 78.239 80.2982 78.6568 79.9037C79.0747 79.5092 79.4031 79.0297 79.6199 78.4976L79.7013 78.2806L80.5111 75.9085ZM90.4504 72.4443C90.6384 72.4443 90.8226 72.4971 90.9821 72.5965C91.1416 72.696 91.2699 72.8382 91.3526 73.007L91.4009 73.1245L91.7525 74.1553L92.7843 74.507C92.9727 74.571 93.1378 74.6894 93.2588 74.8474C93.3797 75.0053 93.4511 75.1956 93.4638 75.3941C93.4765 75.5926 93.4299 75.7905 93.3301 75.9625C93.2302 76.1346 93.0816 76.2731 92.9029 76.3606L92.7843 76.4088L91.7535 76.7605L91.4019 77.7923C91.3378 77.9806 91.2192 78.1456 91.0612 78.2665C90.9032 78.3873 90.7129 78.4586 90.5144 78.4712C90.3159 78.4838 90.1181 78.4371 89.9461 78.3372C89.7741 78.2373 89.6356 78.0885 89.5482 77.9098L89.5 77.7923L89.1484 76.7615L88.1165 76.4098C87.9282 76.3458 87.7631 76.2274 87.6421 76.0694C87.5211 75.9115 87.4498 75.7212 87.4371 75.5227C87.4244 75.3241 87.4709 75.1263 87.5708 74.9543C87.6706 74.7822 87.8193 74.6437 87.998 74.5562L88.1165 74.508L89.1474 74.1563L89.499 73.1245C89.5667 72.926 89.6949 72.7537 89.8655 72.6317C90.0362 72.5097 90.2407 72.4442 90.4504 72.4443Z" fill="white"/>
</svg>
