<svg width="71" height="42" viewBox="0 0 71 42" fill="none" xmlns="http://www.w3.org/2000/svg">
<g clip-path="url(#clip0_2063_170)">
<path d="M14.2148 7.41775C14.7806 7.35299 14.8301 7.86152 14.4449 8.14909C14.2217 8.31576 13.9961 8.46475 13.7782 8.64014C13.3532 8.97774 12.9463 9.33765 12.5594 9.71835C10.8132 11.4752 9.48264 13.6008 8.66532 15.9392C7.42213 19.5983 7.54634 23.3638 9.27034 26.8409C10.6576 29.6037 13.0747 31.711 16.0008 32.7086C21.2309 34.4648 26.7559 31.8909 28.5964 26.6565C29.9775 22.743 28.6097 17.6646 24.3891 16.2154C21.3319 15.1656 17.8147 16.8735 17.5234 20.2623C17.2925 22.7394 19.6422 25.0009 22.0471 23.6686C22.2434 23.5599 22.4348 23.8231 22.3102 24.0358C21.5249 25.3757 19.8067 25.7002 18.4418 25.0924C17.2205 24.5484 16.4886 23.6412 16.0003 22.4202C15.9827 22.379 15.9668 22.3372 15.9525 22.2948C15.4438 20.814 15.6187 19.1276 16.305 17.7335C17.0887 16.124 18.4851 14.8961 20.1815 14.3245C24.3179 12.9307 28.6637 15.4313 30.2664 19.3472C32.8272 25.6041 29.2918 32.9215 22.8901 34.9819C19.7433 35.995 16.4003 35.6087 13.4709 34.1304C10.1305 32.4213 7.61056 29.4495 6.4706 25.8747C5.22094 22.0389 5.53313 17.8649 7.33955 14.2575C8.53233 11.9007 10.2807 9.81946 12.4772 8.3348C12.9515 8.01423 13.675 7.59515 14.2148 7.41775Z" fill="white"/>
<path d="M21.8438 8.24703C23.185 8.13615 24.8003 8.36229 26.0842 8.73376C29.4739 9.72593 32.3253 12.0334 34.003 15.1415C35.8393 18.5425 36.2446 22.535 35.129 26.2358C34.652 27.879 33.868 29.4169 32.8185 30.7683C32.6061 31.0409 32.2197 31.6416 31.8119 31.4829C31.6345 31.4137 31.5537 31.2264 31.6178 31.0454C31.7571 30.6534 31.9847 30.3034 32.1579 29.9264C33.6929 26.7139 34.3102 22.9762 33.4545 19.4852C32.7038 16.4236 30.8991 13.7156 28.1635 12.0897C25.7623 10.6626 22.9942 10.102 20.2538 10.768C17.7186 11.4001 15.5378 13.0122 14.19 15.2506C12.7979 17.5492 12.4712 20.0979 13.1075 22.6852C13.6184 24.3951 14.4843 25.8068 15.9753 26.8396C17.301 27.7463 18.8748 28.1456 20.4636 27.8688C22.9374 27.45 24.7235 25.1278 24.2744 22.6217C23.9011 20.5373 21.9322 19.1481 19.9403 20.1933C19.7834 20.2757 19.6463 20.3359 19.4885 20.2289C19.3667 20.0093 19.6181 19.6325 19.7625 19.4628C20.2325 18.9193 20.965 18.5369 21.6901 18.4988C24.2693 18.3634 25.9972 20.6939 26.1565 23.0451C26.2655 24.7414 25.7021 26.4123 24.5882 27.6963C23.4167 29.028 21.6861 29.8171 19.925 29.9337C17.786 30.0563 15.6856 29.3268 14.0829 27.905C12.0744 26.1397 10.948 23.6478 10.7817 20.9943C10.6059 17.7879 11.6875 14.6393 13.7965 12.2178C15.8914 9.84631 18.6832 8.43773 21.8438 8.24703Z" fill="white"/>
<path d="M34.0813 -0.0194535C34.4561 -0.0668748 35.0255 0.319952 35.2904 0.560786C36.0558 1.25668 36.349 2.1619 36.4063 3.17054C36.652 2.58149 36.5184 2.17969 36.6351 1.89118C36.713 1.8206 36.6681 1.838 36.7749 1.83947C36.9 1.89844 36.9446 1.94564 37.0358 2.04107C37.6699 2.70412 37.8365 3.50079 37.6425 4.38567C37.5256 4.9177 37.4089 5.20929 37.3908 5.76185C37.5668 5.36195 37.6267 5.00545 37.9546 4.67381C38.0992 4.52746 38.383 4.23008 38.6078 4.33523C38.5945 4.63828 38.5533 5.1212 38.625 5.41089C38.8016 6.12269 39.0761 6.75408 39.0764 7.51008C39.08 8.40586 38.7233 9.26546 38.0862 9.89521C37.5953 10.3794 36.7641 10.7935 36.051 10.8358C35.9736 10.8403 35.8635 10.8249 35.8059 10.7643C35.7898 10.5804 36.2942 9.93874 36.4097 9.55762C36.5582 9.06812 36.6723 8.64094 36.4715 8.09558C36.4698 8.0912 36.432 8.04406 36.4227 8.04547C36.1434 8.08747 36.0801 8.11156 35.8166 8.04556C35.0393 7.63662 35.2565 6.76007 35.3014 6.02486C34.6917 7.21728 33.6585 7.6001 33.865 9.06925C33.9314 9.54301 34.5733 10.6077 34.5756 10.7065C34.3929 10.9684 33.5668 10.6481 33.3315 10.5357C32.4749 10.1187 31.8165 9.3814 31.4988 8.48314C31.1763 7.55423 31.2497 6.60891 31.657 5.7246C31.8256 5.35813 32.0623 4.88886 32.1834 4.51364C32.241 4.33834 32.2842 4.15871 32.3128 3.97648C32.3354 3.83466 32.341 3.51811 32.3865 3.42445C32.8655 3.29812 33.3394 4.461 33.4507 4.82029C33.4668 4.35494 33.3993 3.7858 33.5179 3.34687C33.7645 2.43487 34.4677 1.90539 34.3141 0.860679C34.2644 0.523081 34.1534 0.309756 34.0864 0.00475123L34.0813 -0.0194535ZM32.8093 4.88369L32.7991 4.92264C32.7127 5.24363 32.4808 5.69262 32.3472 6.01345C31.9631 6.93453 31.9586 7.85166 32.4531 8.73027C32.6429 9.06739 33.0027 9.49751 33.3264 9.70621C33.0595 9.01257 33.0166 8.29653 33.3191 7.61975C33.7828 6.58208 34.9444 6.04745 34.9233 4.78614C34.921 4.64597 34.8967 4.44891 34.9331 4.31599C35.2577 4.23477 35.6008 4.8302 35.7206 5.07957C36.0208 5.87005 35.936 6.33879 35.9513 7.13871C35.955 7.33548 36.2498 7.42306 36.3896 7.29653C36.6955 7.11481 37.0728 7.55087 37.1556 7.81481C37.405 8.47763 37.3488 9.11789 37.0982 9.7638C38.6516 8.51073 38.4336 7.53627 37.9876 5.78854C37.8783 6.12272 37.8176 6.7355 37.5857 6.89267C37.1705 6.95882 36.7887 6.12716 36.75 5.77702C36.6472 4.84141 37.0965 4.24914 37.0019 3.28281C36.8305 3.63631 36.5726 4.11142 36.1755 4.25086C35.6934 4.42004 35.7465 3.38115 35.7158 3.11326C35.6437 2.48537 35.4421 1.77792 35.0057 1.3023C34.9795 2.43374 34.4697 2.69178 34.1884 3.64509C34.0633 4.06934 34.2259 4.67859 34.0189 5.29614C33.9257 5.58132 33.7642 5.83932 33.5484 6.04771C33.4103 6.18141 33.2493 6.33413 33.0553 6.22448C32.9417 6.00703 32.9621 5.33969 32.8093 4.88369Z" fill="white"/>
<path d="M37.3106 29.5273C37.9687 29.5977 37.2202 30.4102 37.0657 30.6373C36.9734 30.7735 36.8921 30.9169 36.8229 31.0661C36.4752 31.8244 36.4752 32.8259 36.763 33.6041C36.8008 33.3722 36.8443 33.1442 36.9152 32.9135C37.4563 31.1502 39.5771 29.814 41.3993 29.9293C41.5222 29.9369 41.7185 29.9663 41.7973 30.062C41.6546 30.4134 41.5239 30.7167 41.4211 31.083C41.1499 32.0506 41.1262 33.0019 40.5684 33.8718C39.9801 34.7892 38.8764 35.2668 37.8492 35.4865L37.9819 35.7907C38.1932 36.3556 38.3819 36.8414 38.4934 37.4367C36.9833 37.9714 35.3263 38.0282 34.0969 36.8354C33.3207 36.0822 33.1375 35.1013 32.635 34.1853C32.5517 34.0331 32.0368 33.4038 32.0371 33.3066C32.147 33.1776 32.3481 33.1154 32.5107 33.0688C33.6741 32.737 34.9634 32.9748 36.0123 33.5255C35.611 32.1546 35.8702 30.1863 37.3106 29.5273ZM37.3264 37.0362C36.637 36.4104 35.8327 36.0051 35.2099 35.1784C35.1136 35.0586 35.0204 34.9586 34.9597 34.8185L34.967 34.7649C35.1068 34.7332 35.6979 35.2015 35.8589 35.3151L37.4462 36.4363C37.1217 35.4967 36.6523 34.5768 35.7186 34.1638C34.8145 33.7636 34.1932 33.6354 33.2199 33.6925C33.1996 33.7729 33.223 33.8015 33.2792 33.8921C34.0536 35.1419 34.1364 36.5468 35.8459 36.9792C36.3173 37.0984 36.8494 37.0673 37.3264 37.0362ZM37.4177 34.4259C37.6608 34.0353 39.1105 32.1919 39.4929 32.1368C39.5017 32.1498 39.5288 32.1873 39.5336 32.2001C38.9956 33.1485 38.4525 33.8385 37.8647 34.7287C38.7838 34.4737 39.5477 34.1427 40.0425 33.2725C40.3597 32.7144 40.436 32.0224 40.5585 31.4013C40.5986 31.1985 40.7314 30.9638 40.7164 30.7469C40.6503 30.6932 40.6591 30.713 40.5433 30.7206C38.7213 31.1759 37.3934 32.4712 37.4177 34.4259Z" fill="white"/>
<path d="M3.886 5.10972C5.93129 5.02618 7.71684 6.17767 8.24557 8.20321C8.34244 8.57427 8.43804 9.86908 7.73841 9.23851C7.65541 9.16369 7.52896 8.69157 7.46982 8.57258C6.90152 7.071 5.51709 5.98124 3.8655 6.14183C2.08826 6.31466 0.795221 7.80327 1.01382 9.59608C1.10233 10.3221 1.47912 10.9819 2.05937 11.4271C2.60189 11.844 3.28827 12.0273 3.96641 11.9365C4.60651 11.8497 5.13338 11.5405 5.51742 11.0223C5.86281 10.5643 6.00893 9.98643 5.92271 9.41935C5.76768 8.38894 4.88264 7.62409 3.82605 7.79997C3.40164 7.87385 3.02273 8.11017 2.76968 8.45881C2.56139 8.75116 2.47878 9.11472 2.54032 9.46839C2.65049 10.1243 3.21346 10.563 3.87801 10.4106C4.16307 10.3429 4.40754 10.1606 4.55378 9.90667C4.81432 9.45375 4.64478 9.01739 4.1882 8.7939L4.15425 8.77749C3.52167 8.61941 3.49961 9.00282 3.32993 9.40467C3.27152 9.36595 3.22427 9.27051 3.21628 9.20501C3.07405 8.35281 4.26954 8.08921 4.76953 8.65725C6.06632 10.1306 4.04171 11.8834 2.55354 10.7638C2.15557 10.4623 1.89452 10.0144 1.8284 9.51948C1.53869 7.35423 4.18306 6.22063 5.76105 7.52713C6.40015 8.05628 6.75138 8.7101 6.83651 9.53552C6.92163 10.349 6.67569 11.1625 6.15413 11.7925C5.59396 12.4667 4.83344 12.8542 3.96325 12.9352C2.99963 13.0314 2.03799 12.7349 1.29583 12.1128C0.539595 11.4791 0.067459 10.5219 -0.011395 9.54179C-0.10567 8.4476 0.248129 7.36196 0.968999 6.53343C1.71342 5.67414 2.76098 5.19578 3.886 5.10972Z" fill="white"/>
<path d="M19.9178 2.14456C22.1972 2.02407 24.4803 2.30202 26.6643 2.96586C27.0447 3.07796 27.4209 3.2039 27.7923 3.34345C28.1518 3.48207 28.4441 3.62109 28.8223 3.71502C29.2759 3.82772 29.5439 3.33082 29.8664 3.42281C30.2409 3.80829 29.4222 4.90383 28.6986 4.77993C27.8188 4.62928 27.1509 4.23513 26.309 4.0069C23.9208 3.35929 21.2116 3.06728 18.7453 3.39821C16.1427 3.58663 13.2798 4.60761 11.0442 5.89098C10.7285 6.07222 10.1943 6.52085 9.84001 6.27436C9.73297 6.09016 9.83117 5.84771 9.98122 5.72118C12.6983 3.43041 16.426 2.35712 19.9178 2.14456Z" fill="white"/>
<path d="M30.9387 36.5051C31.6281 36.4757 31.377 37.016 31.0305 37.3255C30.1645 38.0991 29.1661 38.7397 28.1262 39.2535C24.9619 40.8182 21.4142 41.4392 17.9066 41.0424C17.1893 40.971 16.4767 40.8574 15.7728 40.7024C15.2978 40.595 14.7754 40.3778 14.3002 40.3488C14.0047 40.3307 13.8418 40.5092 13.6463 40.695C13.262 40.978 13.1673 40.4004 13.2956 40.1078C13.8538 38.8354 15.0789 39.3794 16.083 39.6062C16.3897 39.6734 16.6987 39.7296 17.0095 39.7746C17.8849 39.9065 18.7678 39.9821 19.6529 40.0008C23.2013 40.0739 26.7042 39.0953 29.7186 37.2541C30.1185 37.0098 30.5294 36.7271 30.9387 36.5051Z" fill="white"/>
<path d="M1.52461 15.2994C2.19191 15.2809 2.66978 15.7077 2.63617 16.3772C2.61027 16.8931 2.48061 17.4047 2.4063 17.9136C2.34786 18.3371 2.29903 18.7617 2.25989 19.1874C2.20549 19.7504 2.1879 20.6541 2.20075 21.2271C2.26418 24.3859 3.08387 27.4833 4.59108 30.26C4.94578 30.9282 5.37869 31.5425 5.76593 32.1896C5.941 32.4822 5.91259 32.7288 5.58204 32.8757C5.09564 32.8437 4.50234 31.949 4.20842 31.5248C1.26362 27.2752 0.415405 21.5094 1.57062 16.5133C1.70952 15.9125 0.915275 15.5681 1.52461 15.2994Z" fill="white"/>
<path d="M36.9688 12.0727L36.9833 12.0727C37.1482 12.0709 37.2261 12.0682 37.3445 12.2024C37.7094 12.6168 38.0892 13.3893 38.3186 13.8905C39.6502 16.7729 40.2269 19.9466 39.9945 23.1131C39.9468 23.8195 39.8618 24.5228 39.7403 25.2201C39.6643 25.6474 39.4601 26.4572 39.4655 26.8404L39.4664 26.8837C39.624 27.17 39.9205 27.3884 39.5759 27.6601C38.8775 27.8137 38.3307 27.1655 38.4027 26.5063C38.4547 26.0287 38.575 25.528 38.6572 25.0492C38.7332 24.5965 38.795 24.1412 38.8425 23.6845C39.0602 21.6507 38.9015 19.1145 38.4522 17.1201C38.1443 15.7315 37.6938 14.3784 37.1081 13.0823C37.0163 12.8817 36.8183 12.5077 36.8228 12.286C36.8248 12.1919 36.9016 12.1317 36.9688 12.0727Z" fill="white"/>
<path d="M8.24859 33.747C9.52833 33.5346 11.0998 34.3943 11.2397 35.7605C11.3349 36.6897 10.902 37.5477 9.91364 37.6926C9.67414 37.7277 9.13219 37.6613 9.12917 37.3554C9.21771 37.295 9.35302 37.2986 9.46645 37.2783C9.80652 37.2173 10.063 37.0586 10.2598 36.7753C10.442 36.5168 10.5102 36.1951 10.4486 35.885C10.2441 34.8033 8.97965 34.4531 8.0327 34.6516C7.03522 34.8612 6.39049 35.5046 5.84323 36.3194C5.08923 37.539 3.96745 39.3271 2.17491 38.8241C1.86977 38.7385 1.12995 38.1779 1.2795 37.8033C1.43565 37.763 1.7925 38.0296 1.97359 38.0773C3.84827 38.569 4.62187 36.4502 5.54764 35.284C6.25727 34.3901 7.11224 33.8828 8.24859 33.747Z" fill="white"/>
<path d="M5.95643 38.3486C7.61705 38.3074 7.69316 39.6258 9.18057 39.9678C9.70177 40.0879 10.1993 40.015 10.7034 39.85C10.9241 39.7777 11.3623 39.4843 11.54 39.517L11.5579 39.5868C11.514 39.7453 11.4514 39.8003 11.3547 39.9206C10.6335 40.818 9.33862 40.8459 8.351 40.4223C7.81904 40.194 7.42901 39.8057 7.0037 39.425C5.91304 38.4952 4.99577 39.708 4.00425 40.137C3.04897 40.5502 1.99932 40.3 1.54707 39.3021C1.50033 39.199 1.4779 39.1117 1.52126 39.0126C1.6939 38.9985 1.89194 39.2326 2.04844 39.338C3.64913 40.4175 4.41906 38.5508 5.95643 38.3486Z" fill="white"/>
<path d="M5.81666 39.8448C6.50412 39.8047 7.00088 40.1744 7.4905 40.6096C8.47979 41.4889 9.8969 41.5007 11.0222 40.8765C11.1333 40.815 11.4393 40.6356 11.5361 40.7277C11.5324 40.8576 11.4083 41.029 11.3174 41.1228C10.0872 42.3884 8.16265 42.1735 6.95275 41.0988C5.65248 39.8903 5.11084 41.0268 3.81365 41.4778C2.85975 41.8097 1.81408 41.4021 1.46387 40.4362C1.43639 40.3602 1.43088 40.2744 1.46946 40.2015L1.52459 40.1891C1.6882 40.2659 1.86509 40.4718 2.01435 40.5777C3.152 41.3869 4.07246 40.5766 5.08302 40.0388C5.28925 39.9289 5.57789 39.8764 5.81666 39.8448Z" fill="white"/>
<path d="M8.6959 35.2683C9.35492 35.2474 10.1157 35.7083 9.77627 36.4971C9.7406 36.5802 9.69954 36.6096 9.6167 36.6375L9.57671 36.6112C9.47724 36.0108 9.10898 35.6942 8.50365 36.0311C7.86276 36.3878 7.85163 37.3123 8.20851 37.8831C8.60758 38.5211 9.3561 38.8679 10.1074 38.8177C10.6217 38.7883 10.9276 38.6346 11.3492 38.366C11.4409 38.3101 11.5047 38.2613 11.6074 38.3076L11.631 38.3819C11.5446 38.9657 10.7994 39.417 10.2634 39.504C9.52042 39.646 8.87411 39.4255 8.24602 39.0332C6.77951 38.1166 6.71969 35.5801 8.6959 35.2683Z" fill="white"/>
</g>
<path d="M59.2759 16.205L59.1462 20.511H57.0088V18H56.2617V16.205H59.2759ZM49.0401 18V7.37509H51.1983V16.1946H55.6184V7.37509H57.8025V18H49.0401ZM60.6391 7.37509H62.8802V14.0572H62.9684L67.5598 7.37509H69.526V18H67.2796V11.3127H67.2018L62.5845 18H60.6391V7.37509ZM56.1314 34L52.7177 29.4709H51.9499V34H49.7035V23.3751H51.9499V27.6188H52.4013L55.9291 23.3751H58.7254L54.5802 28.3036L58.9173 34H56.1314ZM59.4711 34V32.1946L59.772 32.1687C60.1594 32.1375 60.4724 31.9905 60.711 31.7277C60.9497 31.4614 61.1278 31.0377 61.2454 30.4566C61.3664 29.8721 61.4443 29.087 61.4789 28.1013L61.6552 23.3751H68.8665V34H66.6824V25.1753H63.7408L63.5748 28.8743C63.5194 30.0641 63.3776 31.036 63.1494 31.7899C62.9246 32.5439 62.5649 33.1008 62.0703 33.4605C61.5792 33.8202 60.9065 34 60.0522 34H59.4711Z" fill="white"/>
<defs>
<clipPath id="clip0_2063_170">
<rect width="41.7875" height="42.0002" fill="white"/>
</clipPath>
</defs>
</svg>
