<svg width="88" height="89" viewBox="0 0 88 89" fill="none" xmlns="http://www.w3.org/2000/svg">
<g opacity="0.3">
<g clip-path="url(#clip0_2108_3136)">
<path d="M29.8081 15.5548C30.9946 15.419 31.0983 16.4854 30.2907 17.0884C29.8226 17.4379 29.3494 17.7503 28.8925 18.1181C28.0012 18.8261 27.1481 19.5808 26.3367 20.3791C22.675 24.0633 19.8848 28.5207 18.1709 33.4242C15.5639 41.0973 15.8244 48.9937 19.4396 56.2851C22.3487 62.0787 27.4173 66.4976 33.5534 68.5895C44.5208 72.2722 56.1066 66.8749 59.9663 55.8983C62.8624 47.6918 59.9941 37.0424 51.1435 34.0034C44.7327 31.8021 37.357 35.3835 36.7462 42.4898C36.2619 47.6842 41.1893 52.4265 46.2323 49.6327C46.6441 49.4047 47.0453 49.9567 46.784 50.4027C45.1373 53.2124 41.5343 53.8929 38.672 52.6184C36.111 51.4776 34.5763 49.5753 33.5522 47.0149C33.5154 46.9284 33.482 46.8408 33.452 46.7519C32.3852 43.6466 32.7521 40.1103 34.1912 37.1869C35.8346 33.8118 38.7628 31.2367 42.3202 30.0382C50.9943 27.1155 60.1073 32.3592 63.4683 40.5708C68.8382 53.6915 61.4244 69.0361 48.0002 73.3567C41.4013 75.4812 34.3911 74.6709 28.2481 71.571C21.2434 67.9872 15.9591 61.7553 13.5686 54.2589C10.948 46.2153 11.6027 37.4624 15.3907 29.8977C17.892 24.9556 21.5583 20.5912 26.1644 17.4778C27.159 16.8056 28.6762 15.9268 29.8081 15.5548Z" fill="#9997B3"/>
<path d="M45.8064 17.2937C48.6188 17.0612 52.0061 17.5354 54.6984 18.3143C61.8066 20.3949 67.786 25.2337 71.304 31.7514C75.1548 38.8832 76.0047 47.2554 73.6653 55.016C72.6649 58.4618 71.0209 61.6867 68.8201 64.5207C68.3747 65.0923 67.5645 66.352 66.7093 66.0192C66.3373 65.874 66.168 65.4814 66.3024 65.1017C66.5944 64.2797 67.0717 63.5458 67.4348 62.7551C70.6537 56.0187 71.9483 48.1806 70.1538 40.8601C68.5796 34.4398 64.7951 28.7612 59.0586 25.3517C54.0233 22.3591 48.2187 21.1835 42.472 22.58C37.1558 23.9056 32.5827 27.2863 29.7563 31.9801C26.837 36.8003 26.1521 42.1449 27.4864 47.5705C28.5577 51.1561 30.3735 54.1163 33.5 56.2822C36.28 58.1834 39.5804 59.0209 42.9121 58.4405C48.0996 57.5621 51.845 52.6925 50.9033 47.4373C50.1203 43.0663 45.9917 40.1532 41.8147 42.345C41.4856 42.5176 41.1981 42.6439 40.8673 42.4196C40.6118 41.959 41.1389 41.1689 41.4417 40.8131C42.4275 39.6734 43.9634 38.8715 45.484 38.7916C50.8926 38.5077 54.516 43.3946 54.8501 48.3251C55.0787 51.8823 53.8971 55.3861 51.5613 58.0786C49.1046 60.8711 45.4755 62.5259 41.7826 62.7705C37.2972 63.0276 32.8925 61.4978 29.5316 58.5163C25.3199 54.8146 22.9578 49.589 22.6091 44.0247C22.2406 37.3009 24.5086 30.6983 28.9312 25.6203C33.3241 20.6473 39.1786 17.6936 45.8064 17.2937Z" fill="#9997B3"/>
<path d="M71.4684 -0.0404738C72.2543 -0.139916 73.4482 0.671257 74.0038 1.17629C75.6088 2.63558 76.2235 4.53381 76.3438 6.64892C76.859 5.41368 76.5789 4.57112 76.8235 3.96612C76.9869 3.81811 76.8928 3.85459 77.1166 3.85767C77.379 3.98134 77.4726 4.0803 77.6639 4.28043C78.9935 5.67085 79.3429 7.34146 78.936 9.19704C78.6908 10.3127 78.4463 10.9242 78.4083 12.0829C78.7773 11.2443 78.9029 10.4967 79.5905 9.80128C79.8937 9.49436 80.4889 8.87076 80.9604 9.09127C80.9325 9.72677 80.846 10.7394 80.9965 11.3469C81.3666 12.8396 81.9423 14.1636 81.9429 15.7489C81.9506 17.6274 81.2026 19.4299 79.8665 20.7505C78.8371 21.7659 77.0941 22.6342 75.5987 22.7228C75.4364 22.7324 75.2055 22.7 75.0846 22.5731C75.0509 22.1872 76.1086 20.8418 76.3509 20.0426C76.6624 19.0161 76.9017 18.1203 76.4806 16.9767C76.477 16.9675 76.3977 16.8687 76.3781 16.8716C75.7924 16.9597 75.6597 17.0102 75.1071 16.8718C73.4773 16.0143 73.9327 14.1761 74.0269 12.6344C72.7482 15.1349 70.5818 15.9377 71.0147 19.0185C71.1539 20.012 72.5001 22.2446 72.5048 22.4519C72.1216 23.001 70.3893 22.3292 69.8959 22.0936C68.0996 21.2191 66.7191 19.6731 66.0528 17.7894C65.3765 15.8415 65.5304 13.8592 66.3845 12.0048C66.738 11.2363 67.2344 10.2522 67.4884 9.4654C67.6093 9.09778 67.6999 8.7211 67.7597 8.33896C67.8071 8.04159 67.8189 7.37777 67.9143 7.18137C68.9187 6.91645 69.9125 9.355 70.1459 10.1084C70.1796 9.13261 70.0381 7.93912 70.2868 7.01868C70.8038 5.10624 72.2786 3.99591 71.9564 1.80516C71.8521 1.09722 71.6194 0.649876 71.479 0.0102834L71.4684 -0.0404738ZM68.8009 10.2414L68.7795 10.3231C68.5983 10.9962 68.1121 11.9377 67.8319 12.6105C67.0265 14.542 67.017 16.4652 68.054 18.3076C68.452 19.0146 69.2065 19.9165 69.8853 20.3542C69.3256 18.8996 69.2356 17.3981 69.8699 15.9789C70.8423 13.8029 73.2783 12.6818 73.2339 10.0368C73.2291 9.74288 73.1782 9.32965 73.2546 9.05093C73.9351 8.8806 74.6547 10.1292 74.9058 10.6521C75.5353 12.3098 75.3577 13.2927 75.3896 14.9701C75.3973 15.3828 76.0157 15.5664 76.3088 15.3011C76.9502 14.92 77.7415 15.8344 77.915 16.3879C78.438 17.7779 78.3201 19.1205 77.7948 20.4749C81.0521 17.8473 80.5949 15.8038 79.6598 12.1389C79.4306 12.8396 79.3032 14.1246 78.817 14.4542C77.9464 14.5929 77.1457 12.8489 77.0645 12.1147C76.8489 10.1527 77.7912 8.91074 77.5928 6.88435C77.2333 7.62563 76.6926 8.62195 75.8599 8.91436C74.8489 9.26912 74.9603 7.09058 74.8957 6.52881C74.7447 5.21213 74.3218 3.72862 73.4068 2.73123C73.3517 5.10387 72.2827 5.64496 71.6928 7.64405C71.4305 8.5337 71.7716 9.81129 71.3375 11.1063C71.142 11.7043 70.8033 12.2453 70.3508 12.6823C70.0612 12.9627 69.7236 13.2829 69.3167 13.053C69.0786 12.597 69.1213 11.1976 68.8009 10.2414Z" fill="#9997B3"/>
<path d="M78.2401 61.9189C79.6201 62.0664 78.0506 63.7704 77.7267 64.2466C77.533 64.532 77.3624 64.8329 77.2173 65.1456C76.4883 66.7359 76.4883 68.8361 77.0918 70.4678C77.1711 69.9815 77.2623 69.5036 77.411 69.0197C78.5457 65.3221 82.993 62.5201 86.8142 62.7617C87.0718 62.7777 87.4834 62.8393 87.6486 63.0401C87.3495 63.7769 87.0753 64.413 86.8598 65.1812C86.2912 67.2103 86.2414 69.2051 85.0717 71.0292C83.8381 72.9529 81.5236 73.9545 79.3696 74.4153L79.6479 75.0531C80.0909 76.2377 80.4865 77.2564 80.7205 78.5049C77.5537 79.626 74.079 79.7451 71.5009 77.2439C69.8734 75.6644 69.4891 73.6074 68.4354 71.6867C68.2607 71.3674 67.181 70.0479 67.1816 69.8441C67.412 69.5734 67.8337 69.4431 68.1748 69.3454C70.6143 68.6495 73.3179 69.1482 75.5176 70.3031C74.676 67.4282 75.2197 63.3007 78.2401 61.9189ZM78.2733 77.665C76.8276 76.3526 75.1409 75.5027 73.835 73.7691C73.633 73.518 73.4376 73.3083 73.3102 73.0145L73.3256 72.902C73.6188 72.8357 74.8584 73.8177 75.196 74.0557L78.5244 76.4071C77.8439 74.4366 76.8596 72.5076 74.9016 71.6417C73.0058 70.8024 71.7029 70.5335 69.662 70.6532C69.6193 70.8219 69.6685 70.8818 69.7864 71.0719C71.4103 73.6927 71.5838 76.6386 75.1687 77.5454C76.1572 77.7953 77.273 77.7302 78.2733 77.665ZM78.4646 72.1913C78.9745 71.3722 82.0146 67.5064 82.8165 67.3909C82.8348 67.4182 82.8917 67.4969 82.9017 67.5236C81.7735 69.5124 80.6346 70.9594 79.4021 72.8262C81.3293 72.2914 82.9314 71.5972 83.969 69.7724C84.6341 68.6021 84.794 67.1511 85.051 65.8487C85.1351 65.4234 85.4135 64.9312 85.3821 64.4764C85.2435 64.3638 85.2619 64.4053 85.019 64.4213C81.1984 65.376 78.4137 68.0922 78.4646 72.1913Z" fill="#9997B3"/>
<path d="M8.14904 10.715C12.438 10.5398 16.1823 12.9545 17.291 17.202C17.4942 17.9801 17.6946 20.6953 16.2275 19.373C16.0535 19.2161 15.7883 18.2261 15.6643 17.9766C14.4726 14.8278 11.5694 12.5425 8.10604 12.8793C4.37919 13.2417 1.66769 16.3633 2.12609 20.1228C2.3117 21.6452 3.10182 23.0289 4.3186 23.9624C5.45626 24.8366 6.8956 25.2212 8.31766 25.0307C9.65993 24.8487 10.7648 24.2004 11.5701 23.1136C12.2944 22.1532 12.6008 20.9414 12.42 19.7522C12.0949 17.5915 10.239 15.9876 8.02331 16.3564C7.13333 16.5113 6.33877 17.0069 5.80811 17.738C5.37133 18.3511 5.19809 19.1134 5.32714 19.8551C5.55818 21.2305 6.73872 22.1505 8.13228 21.8309C8.73004 21.6889 9.24269 21.3066 9.54936 20.7741C10.0957 19.8244 9.74018 18.9093 8.78275 18.4407L8.71156 18.4063C7.38504 18.0748 7.33878 18.8788 6.98296 19.7214C6.86048 19.6402 6.7614 19.4401 6.74464 19.3028C6.44638 17.5157 8.95332 16.9629 10.0018 18.1541C12.7212 21.2438 8.47555 24.9193 5.35486 22.5715C4.52032 21.9393 3.97291 21 3.83426 19.9622C3.22673 15.4217 8.77197 13.0445 12.081 15.7843C13.4212 16.8939 14.1577 18.2649 14.3362 19.9958C14.5147 21.7017 13.999 23.4076 12.9053 24.7288C11.7306 26.1426 10.1358 26.955 8.31102 27.1249C6.29032 27.3266 4.27377 26.7048 2.71745 25.4003C1.13164 24.0714 0.141577 22.0642 -0.0237791 20.009C-0.221472 17.7145 0.520441 15.4379 2.0321 13.7005C3.59315 11.8986 5.78987 10.8954 8.14904 10.715Z" fill="#9997B3"/>
<path d="M41.7676 4.49685C46.5476 4.24419 51.3351 4.82704 55.915 6.21911C56.7127 6.45418 57.5016 6.71828 58.2804 7.01092C59.0343 7.3016 59.6473 7.59312 60.4403 7.79011C61.3915 8.02642 61.9535 6.98444 62.6299 7.17734C63.4152 7.98567 61.6983 10.283 60.1809 10.0232C58.3361 9.70728 56.9354 8.88077 55.1699 8.40216C50.1618 7.04414 44.4807 6.43179 39.3088 7.12576C33.8513 7.52086 27.8478 9.66186 23.1598 12.3531C22.4977 12.7331 21.3776 13.6739 20.6346 13.157C20.4101 12.7707 20.6161 12.2623 20.9307 11.997C26.6284 7.19327 34.4454 4.94259 41.7676 4.49685Z" fill="#9997B3"/>
<path d="M64.878 76.5512C66.3237 76.4896 65.7972 77.6227 65.0705 78.2718C63.2546 79.894 61.161 81.2373 58.9804 82.3146C52.3448 85.5958 44.9054 86.8982 37.5498 86.0661C36.0456 85.9162 34.5515 85.6781 33.0753 85.353C32.0793 85.1279 30.9838 84.6724 29.9872 84.6114C29.3675 84.5735 29.0261 84.9479 28.616 85.3376C27.8102 85.931 27.6115 84.7198 27.8805 84.1062C29.051 81.4381 31.6202 82.5788 33.7258 83.0544C34.3689 83.1953 35.0169 83.3132 35.6686 83.4074C37.5042 83.684 39.3558 83.8427 41.2118 83.8818C48.6528 84.0352 55.9984 81.983 62.3195 78.1219C63.1581 77.6096 64.0198 77.0168 64.878 76.5512Z" fill="#9997B3"/>
<path d="M3.19701 32.0833C4.59632 32.0443 5.59841 32.9394 5.52793 34.3434C5.47362 35.4251 5.20172 36.4981 5.0459 37.5652C4.92336 38.4532 4.82096 39.3437 4.73888 40.2363C4.62481 41.4169 4.58791 43.312 4.61486 44.5135C4.74788 51.1375 6.46677 57.6329 9.62737 63.4555C10.3712 64.8568 11.279 66.145 12.091 67.5019C12.4582 68.1155 12.3986 68.6325 11.7054 68.9405C10.6854 68.8736 9.44129 66.9973 8.82493 66.1077C2.64971 57.1964 0.871007 45.1056 3.29349 34.6287C3.58476 33.3688 1.91923 32.6466 3.19701 32.0833Z" fill="#9997B3"/>
<path d="M77.5232 25.3164L77.5534 25.3163C77.8992 25.3127 78.0627 25.3069 78.3108 25.5883C79.076 26.4572 79.8726 28.0773 80.3535 29.1283C83.146 35.1725 84.3554 41.8278 83.8679 48.468C83.7678 49.9493 83.5896 51.424 83.3349 52.8863C83.1756 53.7824 82.7474 55.4805 82.7586 56.2842L82.7604 56.3748C83.0909 56.9754 83.7128 57.4332 82.9902 58.003C81.5256 58.3252 80.379 56.9659 80.53 55.5835C80.639 54.582 80.8913 53.5319 81.0636 52.528C81.2229 51.5786 81.3526 50.6239 81.4521 49.6662C81.9088 45.4013 81.5759 40.083 80.6337 35.9007C79.9881 32.9888 79.0435 30.1513 77.8151 27.4334C77.6227 27.0129 77.2075 26.2286 77.217 25.7637C77.2211 25.5662 77.3822 25.4401 77.5232 25.3164Z" fill="#9997B3"/>
<path d="M17.2971 70.7676C19.9807 70.3222 23.2761 72.1251 23.5695 74.9899C23.7691 76.9384 22.8612 78.7377 20.7887 79.0416C20.2865 79.115 19.15 78.9758 19.1437 78.3344C19.3294 78.2077 19.6131 78.2154 19.851 78.1727C20.5641 78.0448 21.102 77.7119 21.5147 77.1179C21.8966 76.576 22.0397 75.9014 21.9104 75.2511C21.4818 72.9827 18.8302 72.2482 16.8444 72.6646C14.7527 73.1041 13.4007 74.4533 12.2531 76.162C10.672 78.7194 8.3196 82.4691 4.56065 81.4142C3.92078 81.2348 2.36938 80.0591 2.68298 79.2738C3.01043 79.1891 3.75874 79.7482 4.13849 79.8483C8.06967 80.8794 9.69191 76.4362 11.6332 73.9907C13.1213 72.1162 14.9142 71.0525 17.2971 70.7676Z" fill="#9997B3"/>
<path d="M12.4903 80.417C15.9726 80.3306 16.1322 83.0953 19.2513 83.8125C20.3443 84.0642 21.3876 83.9114 22.4446 83.5655C22.9074 83.4139 23.8263 82.7985 24.199 82.8672L24.2365 83.0135C24.1446 83.3458 24.0133 83.4613 23.8105 83.7136C22.2982 85.5952 19.5827 85.6539 17.5117 84.7655C16.3962 84.2869 15.5783 83.4725 14.6864 82.6742C12.3993 80.7244 10.4758 83.2676 8.39661 84.1673C6.39338 85.0338 4.19228 84.509 3.24391 82.4165C3.1459 82.2003 3.09887 82.0173 3.18978 81.8094C3.55182 81.7798 3.96711 82.2708 4.29528 82.4917C7.65192 84.7554 9.26645 80.8411 12.4903 80.417Z" fill="#9997B3"/>
<path d="M12.1973 83.5541C13.6389 83.47 14.6806 84.2453 15.7073 85.158C17.7819 87.0017 20.7535 87.0266 23.1134 85.7177C23.3462 85.5886 23.988 85.2125 24.1908 85.4055C24.1833 85.678 23.923 86.0375 23.7323 86.2341C21.1526 88.8881 17.1168 88.4374 14.5797 86.1838C11.853 83.6495 10.7172 86.0328 7.99699 86.9786C5.99666 87.6745 3.80391 86.8199 3.06952 84.7943C3.0119 84.635 3.00035 84.455 3.08125 84.3021L3.19686 84.2761C3.53995 84.4372 3.91087 84.8689 4.22388 85.0911C6.60952 86.7879 8.53973 85.0887 10.6589 83.961C11.0913 83.7306 11.6966 83.6204 12.1973 83.5541Z" fill="#9997B3"/>
<path d="M18.235 73.9575C19.617 73.9137 21.2123 74.8802 20.5006 76.5345C20.4258 76.7086 20.3397 76.7702 20.166 76.8288L20.0821 76.7737C19.8735 75.5146 19.1013 74.8506 17.8319 75.5572C16.488 76.3052 16.4646 78.2437 17.213 79.4407C18.0498 80.7787 19.6195 81.506 21.1949 81.4005C22.2734 81.3389 22.9148 81.0167 23.799 80.4535C23.9914 80.3362 24.1251 80.2338 24.3404 80.3309L24.3899 80.4867C24.2088 81.7109 22.6461 82.6573 21.5221 82.8398C19.9641 83.1377 18.6087 82.6751 17.2916 81.8524C14.2164 79.9305 14.0909 74.6114 18.235 73.9575Z" fill="#9997B3"/>
</g>
</g>
<defs>
<clipPath id="clip0_2108_3136">
<rect width="87.6281" height="88.0741" fill="white"/>
</clipPath>
</defs>
</svg>
