<svg width="71" height="42" viewBox="0 0 71 42" fill="none" xmlns="http://www.w3.org/2000/svg">
<g clip-path="url(#clip0_2059_196)">
<path d="M14.2148 7.41848C14.7806 7.35372 14.8301 7.86225 14.4449 8.14983C14.2217 8.31649 13.9961 8.46548 13.7782 8.64087C13.3532 8.97847 12.9463 9.33838 12.5594 9.71908C10.8132 11.476 9.48264 13.6016 8.66532 15.9399C7.42213 19.599 7.54634 23.3646 9.27034 26.8417C10.6576 29.6045 13.0747 31.7117 16.0008 32.7093C21.2309 34.4655 26.7559 31.8917 28.5964 26.6572C29.9775 22.7438 28.6097 17.6654 24.3891 16.2161C21.3319 15.1664 17.8147 16.8742 17.5234 20.2631C17.2925 22.7401 19.6422 25.0016 22.0471 23.6693C22.2434 23.5606 22.4348 23.8238 22.3102 24.0365C21.5249 25.3764 19.8067 25.7009 18.4418 25.0931C17.2205 24.5491 16.4886 23.6419 16.0003 22.421C15.9827 22.3797 15.9668 22.3379 15.9525 22.2956C15.4438 20.8147 15.6187 19.1284 16.305 17.7343C17.0887 16.1248 18.4851 14.8968 20.1815 14.3252C24.3179 12.9315 28.6637 15.432 30.2664 19.3479C32.8272 25.6049 29.2918 32.9223 22.8901 34.9827C19.7433 35.9958 16.4003 35.6094 13.4709 34.1311C10.1305 32.4221 7.61056 29.4503 6.4706 25.8755C5.22094 22.0397 5.53313 17.8656 7.33955 14.2582C8.53233 11.9015 10.2807 9.82019 12.4772 8.33553C12.9515 8.01496 13.675 7.59588 14.2148 7.41848Z" fill="#9997B3"/>
<path d="M21.8438 8.24605C23.185 8.13517 24.8003 8.36132 26.0842 8.73278C29.4739 9.72495 32.3253 12.0324 34.003 15.1405C35.8393 18.5415 36.2446 22.534 35.129 26.2348C34.652 27.878 33.868 29.4159 32.8185 30.7674C32.6061 31.0399 32.2197 31.6407 31.8119 31.4819C31.6345 31.4127 31.5537 31.2255 31.6178 31.0444C31.7571 30.6524 31.9847 30.3025 32.1579 29.9254C33.6929 26.713 34.3102 22.9752 33.4545 19.4842C32.7038 16.4226 30.8991 13.7146 28.1635 12.0887C25.7623 10.6616 22.9942 10.101 20.2538 10.767C17.7186 11.3991 15.5378 13.0113 14.19 15.2496C12.7979 17.5482 12.4712 20.0969 13.1075 22.6843C13.6184 24.3942 14.4843 25.8058 15.9753 26.8387C17.301 27.7453 18.8748 28.1446 20.4636 27.8679C22.9374 27.449 24.7235 25.1268 24.2744 22.6207C23.9011 20.5363 21.9322 19.1472 19.9403 20.1924C19.7834 20.2747 19.6463 20.3349 19.4885 20.2279C19.3667 20.0083 19.6181 19.6315 19.7625 19.4619C20.2325 18.9183 20.965 18.5359 21.6901 18.4978C24.2693 18.3624 25.9972 20.6929 26.1565 23.0441C26.2655 24.7404 25.7021 26.4113 24.5882 27.6953C23.4167 29.027 21.6861 29.8161 19.925 29.9328C17.786 30.0553 15.6856 29.3258 14.0829 27.904C12.0744 26.1388 10.948 23.6468 10.7817 20.9933C10.6059 17.7869 11.6875 14.6384 13.7965 12.2168C15.8914 9.84533 18.6832 8.43676 21.8438 8.24605Z" fill="#9997B3"/>
<path d="M34.0813 -0.0187211C34.4561 -0.0661424 35.0255 0.320684 35.2904 0.561519C36.0558 1.25742 36.349 2.16263 36.4063 3.17127C36.652 2.58222 36.5184 2.18042 36.6351 1.89191C36.713 1.82133 36.6681 1.83873 36.7749 1.8402C36.9 1.89917 36.9446 1.94637 37.0358 2.0418C37.6699 2.70485 37.8365 3.50153 37.6425 4.3864C37.5256 4.91843 37.4089 5.21002 37.3908 5.76258C37.5668 5.36268 37.6267 5.00619 37.9546 4.67455C38.0992 4.52819 38.383 4.23081 38.6078 4.33596C38.5945 4.63902 38.5533 5.12193 38.625 5.41163C38.8016 6.12343 39.0761 6.75481 39.0764 7.51082C39.08 8.4066 38.7233 9.26619 38.0862 9.89595C37.5953 10.3802 36.7641 10.7942 36.051 10.8365C35.9736 10.8411 35.8635 10.8256 35.8059 10.7651C35.7898 10.5811 36.2942 9.93947 36.4097 9.55835C36.5582 9.06885 36.6723 8.64167 36.4715 8.09631C36.4698 8.09193 36.432 8.04479 36.4227 8.04621C36.1434 8.0882 36.0801 8.1123 35.8166 8.04629C35.0393 7.63735 35.2565 6.7608 35.3014 6.02559C34.6917 7.21801 33.6585 7.60083 33.865 9.06999C33.9314 9.54375 34.5733 10.6084 34.5756 10.7073C34.3929 10.9692 33.5668 10.6488 33.3315 10.5364C32.4749 10.1194 31.8165 9.38214 31.4988 8.48387C31.1763 7.55496 31.2497 6.60964 31.657 5.72533C31.8256 5.35887 32.0623 4.8896 32.1834 4.51438C32.241 4.33907 32.2842 4.15944 32.3128 3.97721C32.3354 3.8354 32.341 3.51884 32.3865 3.42518C32.8655 3.29885 33.3394 4.46173 33.4507 4.82102C33.4668 4.35567 33.3993 3.78653 33.5179 3.3476C33.7645 2.43561 34.4677 1.90612 34.3141 0.861411C34.2644 0.523813 34.1534 0.310488 34.0864 0.00548365L34.0813 -0.0187211ZM32.8093 4.88443L32.7991 4.92338C32.7127 5.24437 32.4808 5.69336 32.3472 6.01418C31.9631 6.93526 31.9586 7.8524 32.4531 8.731C32.6429 9.06812 33.0027 9.49825 33.3264 9.70694C33.0595 9.0133 33.0166 8.29726 33.3191 7.62049C33.7828 6.58281 34.9444 6.04818 34.9233 4.78687C34.921 4.6467 34.8967 4.44964 34.9331 4.31673C35.2577 4.2355 35.6008 4.83093 35.7206 5.0803C36.0208 5.87078 35.936 6.33952 35.9513 7.13944C35.955 7.33621 36.2498 7.4238 36.3896 7.29726C36.6955 7.11554 37.0728 7.5516 37.1556 7.81554C37.405 8.47836 37.3488 9.11862 37.0982 9.76453C38.6516 8.51147 38.4336 7.537 37.9876 5.78927C37.8783 6.12345 37.8176 6.73623 37.5857 6.89341C37.1705 6.95955 36.7887 6.12789 36.75 5.77775C36.6472 4.84215 37.0965 4.24987 37.0019 3.28354C36.8305 3.63704 36.5726 4.11216 36.1755 4.2516C35.6934 4.42078 35.7465 3.38189 35.7158 3.11399C35.6437 2.48611 35.4421 1.77866 35.0057 1.30303C34.9795 2.43448 34.4697 2.69251 34.1884 3.64582C34.0633 4.07007 34.2259 4.67932 34.0189 5.29687C33.9257 5.58205 33.7642 5.84005 33.5484 6.04844C33.4103 6.18214 33.2493 6.33486 33.0553 6.22522C32.9417 6.00777 32.9621 5.34042 32.8093 4.88443Z" fill="#9997B3"/>
<path d="M37.3106 29.5276C37.9687 29.5979 37.2202 30.4105 37.0657 30.6376C36.9734 30.7737 36.8921 30.9172 36.8229 31.0663C36.4752 31.8247 36.4752 32.8262 36.763 33.6043C36.8008 33.3724 36.8443 33.1445 36.9152 32.9137C37.4563 31.1505 39.5771 29.8143 41.3993 29.9295C41.5222 29.9371 41.7185 29.9665 41.7973 30.0622C41.6546 30.4136 41.5239 30.7169 41.4211 31.0833C41.1499 32.0509 41.1262 33.0021 40.5684 33.872C39.9801 34.7894 38.8764 35.267 37.8492 35.4867L37.9819 35.7909C38.1932 36.3558 38.3819 36.8416 38.4934 37.437C36.9833 37.9716 35.3263 38.0284 34.0969 36.8357C33.3207 36.0824 33.1375 35.1015 32.635 34.1856C32.5517 34.0333 32.0368 33.404 32.0371 33.3069C32.147 33.1778 32.3481 33.1157 32.5107 33.0691C33.6741 32.7372 34.9634 32.975 36.0123 33.5258C35.611 32.1548 35.8702 30.1865 37.3106 29.5276ZM37.3264 37.0365C36.637 36.4106 35.8327 36.0053 35.2099 35.1786C35.1136 35.0588 35.0204 34.9589 34.9597 34.8188L34.967 34.7651C35.1068 34.7335 35.6979 35.2018 35.8589 35.3153L37.4462 36.4366C37.1217 35.4969 36.6523 34.577 35.7186 34.1641C34.8145 33.7639 34.1932 33.6356 33.2199 33.6927C33.1996 33.7732 33.223 33.8017 33.2792 33.8924C34.0536 35.1422 34.1364 36.547 35.8459 36.9794C36.3173 37.0986 36.8494 37.0675 37.3264 37.0365ZM37.4177 34.4262C37.6608 34.0356 39.1105 32.1921 39.4929 32.137C39.5017 32.15 39.5288 32.1876 39.5336 32.2003C38.9956 33.1487 38.4525 33.8387 37.8647 34.729C38.7838 34.4739 39.5477 34.1429 40.0425 33.2727C40.3597 32.7146 40.436 32.0226 40.5585 31.4016C40.5986 31.1988 40.7314 30.9641 40.7164 30.7472C40.6503 30.6935 40.6591 30.7133 40.5433 30.7209C38.7213 31.1762 37.3934 32.4714 37.4177 34.4262Z" fill="#9997B3"/>
<path d="M3.886 5.10874C5.93129 5.0252 7.71684 6.1767 8.24557 8.20223C8.34244 8.5733 8.43804 9.8681 7.73841 9.23753C7.65541 9.16272 7.52896 8.69059 7.46982 8.5716C6.90152 7.07002 5.51709 5.98026 3.8655 6.14086C2.08826 6.31368 0.795221 7.8023 1.01382 9.5951C1.10233 10.3211 1.47912 10.9809 2.05937 11.4261C2.60189 11.843 3.28827 12.0264 3.96641 11.9355C4.60651 11.8487 5.13338 11.5396 5.51742 11.0213C5.86281 10.5634 6.00893 9.98546 5.92271 9.41838C5.76768 8.38796 4.88264 7.62312 3.82605 7.79899C3.40164 7.87288 3.02273 8.10919 2.76968 8.45783C2.56139 8.75019 2.47878 9.11374 2.54032 9.46741C2.65049 10.1233 3.21346 10.562 3.87801 10.4096C4.16307 10.3419 4.40754 10.1596 4.55378 9.9057C4.81432 9.45278 4.64478 9.01641 4.1882 8.79292L4.15425 8.77651C3.52167 8.61843 3.49961 9.00184 3.32993 9.40369C3.27152 9.36497 3.22427 9.26953 3.21628 9.20404C3.07405 8.35184 4.26954 8.08824 4.76953 8.65628C6.06632 10.1296 4.04171 11.8824 2.55354 10.7628C2.15557 10.4613 1.89452 10.0134 1.8284 9.5185C1.53869 7.35325 4.18306 6.21966 5.76105 7.52616C6.40015 8.05531 6.75138 8.70912 6.83651 9.53454C6.92163 10.348 6.67569 11.1615 6.15413 11.7916C5.59396 12.4658 4.83344 12.8532 3.96325 12.9342C2.99963 13.0304 2.03799 12.7339 1.29583 12.1118C0.539595 11.4781 0.067459 10.5209 -0.011395 9.54081C-0.10567 8.44662 0.248129 7.36099 0.968999 6.53246C1.71342 5.67317 2.76098 5.1948 3.886 5.10874Z" fill="#9997B3"/>
<path d="M19.9178 2.14407C22.1972 2.02358 24.4803 2.30153 26.6643 2.96537C27.0447 3.07747 27.4209 3.20341 27.7923 3.34296C28.1518 3.48158 28.4441 3.6206 28.8223 3.71454C29.2759 3.82723 29.5439 3.33034 29.8664 3.42233C30.2409 3.8078 29.4222 4.90334 28.6986 4.77944C27.8188 4.62879 27.1509 4.23465 26.309 4.00641C23.9208 3.35881 21.2116 3.06679 18.7453 3.39773C16.1427 3.58614 13.2798 4.60712 11.0442 5.89049C10.7285 6.07173 10.1943 6.52036 9.84001 6.27387C9.73297 6.08967 9.83117 5.84722 9.98122 5.72069C12.6983 3.42992 16.426 2.35663 19.9178 2.14407Z" fill="#9997B3"/>
<path d="M30.9387 36.5051C31.6281 36.4757 31.377 37.016 31.0305 37.3255C30.1645 38.0991 29.1661 38.7397 28.1262 39.2535C24.9619 40.8182 21.4142 41.4392 17.9066 41.0424C17.1893 40.971 16.4767 40.8574 15.7728 40.7024C15.2978 40.595 14.7754 40.3778 14.3002 40.3488C14.0047 40.3307 13.8418 40.5092 13.6463 40.695C13.262 40.978 13.1673 40.4004 13.2956 40.1078C13.8538 38.8354 15.0789 39.3794 16.083 39.6062C16.3897 39.6734 16.6987 39.7296 17.0095 39.7746C17.8849 39.9065 18.7678 39.9821 19.6529 40.0008C23.2013 40.0739 26.7042 39.0953 29.7186 37.2541C30.1185 37.0098 30.5294 36.7271 30.9387 36.5051Z" fill="#9997B3"/>
<path d="M1.52461 15.2999C2.19191 15.2813 2.66978 15.7082 2.63617 16.3777C2.61027 16.8936 2.48061 17.4052 2.4063 17.9141C2.34786 18.3375 2.29903 18.7622 2.25989 19.1879C2.20549 19.7509 2.1879 20.6546 2.20075 21.2276C2.26418 24.3863 3.08387 27.4838 4.59108 30.2605C4.94578 30.9287 5.37869 31.543 5.76593 32.1901C5.941 32.4827 5.91259 32.7293 5.58204 32.8761C5.09564 32.8442 4.50234 31.9495 4.20842 31.5252C1.26362 27.2757 0.415405 21.5099 1.57062 16.5138C1.70952 15.913 0.915275 15.5686 1.52461 15.2999Z" fill="#9997B3"/>
<path d="M36.9688 12.0725L36.9833 12.0725C37.1482 12.0707 37.2261 12.068 37.3445 12.2021C37.7094 12.6165 38.0892 13.3891 38.3186 13.8903C39.6502 16.7726 40.2269 19.9463 39.9945 23.1129C39.9468 23.8192 39.8618 24.5225 39.7403 25.2198C39.6643 25.6472 39.4601 26.4569 39.4655 26.8402L39.4664 26.8834C39.624 27.1698 39.9205 27.3881 39.5759 27.6598C38.8775 27.8135 38.3307 27.1653 38.4027 26.5061C38.4547 26.0285 38.575 25.5277 38.6572 25.049C38.7332 24.5962 38.795 24.1409 38.8425 23.6842C39.0602 21.6505 38.9015 19.1143 38.4522 17.1198C38.1443 15.7312 37.6938 14.3781 37.1081 13.082C37.0163 12.8815 36.8183 12.5075 36.8228 12.2858C36.8248 12.1916 36.9016 12.1315 36.9688 12.0725Z" fill="#9997B3"/>
<path d="M8.24859 33.7465C9.52833 33.5341 11.0998 34.3938 11.2397 35.76C11.3349 36.6892 10.902 37.5472 9.91364 37.6921C9.67414 37.7272 9.13219 37.6608 9.12917 37.3549C9.21771 37.2945 9.35302 37.2981 9.46645 37.2778C9.80652 37.2168 10.063 37.0581 10.2598 36.7748C10.442 36.5164 10.5102 36.1947 10.4486 35.8845C10.2441 34.8028 8.97965 34.4526 8.0327 34.6511C7.03522 34.8607 6.39049 35.5041 5.84323 36.3189C5.08923 37.5385 3.96745 39.3266 2.17491 38.8236C1.86977 38.738 1.12995 38.1774 1.2795 37.8029C1.43565 37.7625 1.7925 38.0291 1.97359 38.0768C3.84827 38.5685 4.62187 36.4497 5.54764 35.2835C6.25727 34.3896 7.11224 33.8823 8.24859 33.7465Z" fill="#9997B3"/>
<path d="M5.95643 38.3488C7.61705 38.3076 7.69316 39.626 9.18057 39.9681C9.70177 40.0881 10.1993 40.0152 10.7034 39.8503C10.9241 39.778 11.3623 39.4845 11.54 39.5173L11.5579 39.5871C11.514 39.7455 11.4514 39.8006 11.3547 39.9209C10.6335 40.8182 9.33862 40.8462 8.351 40.4225C7.81904 40.1943 7.42901 39.8059 7.0037 39.4252C5.91304 38.4954 4.99577 39.7082 4.00425 40.1372C3.04897 40.5504 1.99932 40.3002 1.54707 39.3024C1.50033 39.1993 1.4779 39.112 1.52126 39.0129C1.6939 38.9987 1.89194 39.2329 2.04844 39.3382C3.64913 40.4177 4.41906 38.5511 5.95643 38.3488Z" fill="#9997B3"/>
<path d="M5.81666 39.8453C6.50412 39.8052 7.00088 40.1749 7.4905 40.6101C8.47979 41.4893 9.8969 41.5012 11.0222 40.877C11.1333 40.8154 11.4393 40.6361 11.5361 40.7282C11.5324 40.8581 11.4083 41.0295 11.3174 41.1233C10.0872 42.3889 8.16265 42.174 6.95275 41.0993C5.65248 39.8907 5.11084 41.0273 3.81365 41.4783C2.85975 41.8102 1.81408 41.4026 1.46387 40.4367C1.43639 40.3607 1.43088 40.2749 1.46946 40.202L1.52459 40.1896C1.6882 40.2664 1.86509 40.4723 2.01435 40.5782C3.152 41.3874 4.07246 40.5771 5.08302 40.0393C5.28925 39.9294 5.57789 39.8769 5.81666 39.8453Z" fill="#9997B3"/>
<path d="M8.6959 35.2692C9.35492 35.2483 10.1157 35.7093 9.77627 36.4981C9.7406 36.5812 9.69954 36.6105 9.6167 36.6385L9.57671 36.6122C9.47724 36.0118 9.10898 35.6952 8.50365 36.0321C7.86276 36.3888 7.85163 37.3132 8.20851 37.884C8.60758 38.5221 9.3561 38.8689 10.1074 38.8186C10.6217 38.7893 10.9276 38.6356 11.3492 38.367C11.4409 38.3111 11.5047 38.2622 11.6074 38.3085L11.631 38.3828C11.5446 38.9666 10.7994 39.418 10.2634 39.505C9.52042 39.647 8.87411 39.4264 8.24602 39.0341C6.77951 38.1176 6.71969 35.581 8.6959 35.2692Z" fill="#9997B3"/>
</g>
<path d="M59.2759 16.205L59.1462 20.511H57.0088V18H56.2617V16.205H59.2759ZM49.0401 18V7.37509H51.1983V16.1946H55.6184V7.37509H57.8025V18H49.0401ZM60.6391 7.37509H62.8802V14.0572H62.9684L67.5598 7.37509H69.526V18H67.2796V11.3127H67.2018L62.5845 18H60.6391V7.37509ZM56.1314 34L52.7177 29.4709H51.9499V34H49.7035V23.3751H51.9499V27.6188H52.4013L55.9291 23.3751H58.7254L54.5802 28.3036L58.9173 34H56.1314ZM59.4711 34V32.1946L59.772 32.1687C60.1594 32.1375 60.4724 31.9905 60.711 31.7277C60.9497 31.4614 61.1278 31.0377 61.2454 30.4566C61.3664 29.8721 61.4443 29.087 61.4789 28.1013L61.6552 23.3751H68.8665V34H66.6824V25.1753H63.7408L63.5748 28.8743C63.5194 30.0641 63.3776 31.036 63.1494 31.7899C62.9246 32.5439 62.5649 33.1008 62.0703 33.4605C61.5792 33.8202 60.9065 34 60.0522 34H59.4711Z" fill="#9997B3"/>
<defs>
<clipPath id="clip0_2059_196">
<rect width="41.7875" height="42.0002" fill="white"/>
</clipPath>
</defs>
</svg>
