<svg width="148" height="148" viewBox="0 0 148 148" fill="none" xmlns="http://www.w3.org/2000/svg">
<g clip-path="url(#clip0_2059_262)">
<path d="M50.3434 26.1419C52.3474 25.9137 52.5226 27.7057 51.1586 28.7191C50.368 29.3064 49.5688 29.8313 48.7971 30.4494C47.2918 31.639 45.8509 32.9073 44.4805 34.2488C38.296 40.4396 33.5835 47.9299 30.6887 56.1698C26.2857 69.0637 26.7256 82.3327 32.8316 94.5853C37.7449 104.321 46.3056 111.746 56.6691 115.262C75.1926 121.45 94.7605 112.38 101.279 93.9354C106.171 80.1452 101.326 62.2498 86.3781 57.1431C75.5504 53.4439 63.0933 59.4621 62.0617 71.4037C61.2437 80.1322 69.5659 88.1012 78.0832 83.4066C78.7787 83.0234 79.4563 83.951 79.0151 84.7004C76.2339 89.4219 70.1486 90.5655 65.3143 88.4237C60.9889 86.5068 58.3967 83.3101 56.6671 79.0076C56.605 78.8623 56.5486 78.715 56.4979 78.5657C54.6962 73.3475 55.3159 67.4051 57.7463 62.4927C60.522 56.8211 65.4677 52.494 71.4759 50.4799C86.126 45.5686 101.517 54.3801 107.194 68.1789C116.264 90.2271 103.742 116.012 81.0691 123.272C69.9239 126.842 58.084 125.481 47.7088 120.272C35.878 114.25 26.9531 103.777 22.9156 91.1805C18.4897 77.664 19.5954 62.9556 25.9932 50.2438C30.2177 41.9391 36.4099 34.6051 44.1895 29.3734C45.8694 28.2438 48.4317 26.7671 50.3434 26.1419Z" fill="white"/>
<path d="M77.3668 29.0577C82.1168 28.6669 87.8377 29.4638 92.385 30.7728C104.39 34.269 114.489 42.4001 120.431 53.3524C126.935 65.3367 128.37 79.4055 124.419 92.4463C122.73 98.2367 119.953 103.656 116.236 108.418C115.484 109.379 114.115 111.495 112.671 110.936C112.043 110.692 111.757 110.032 111.984 109.394C112.477 108.013 113.283 106.78 113.896 105.451C119.333 94.1313 121.519 80.9601 118.488 68.6587C115.83 57.8701 109.438 48.3277 99.7491 42.5984C91.2447 37.5697 81.441 35.5942 71.7352 37.9409C62.7563 40.1684 55.0325 45.8493 50.259 53.7369C45.3283 61.8366 44.1715 70.8177 46.4251 79.935C48.2346 85.9603 51.3013 90.9345 56.5819 94.5742C61.2771 97.769 66.8513 99.1762 72.4785 98.2009C81.24 96.7249 87.5657 88.5419 85.9752 79.7111C84.6528 72.366 77.6798 67.471 70.6249 71.154C70.0692 71.4441 69.5836 71.6563 69.0248 71.2793C68.5933 70.5054 69.4836 69.1776 69.9951 68.5799C71.6599 66.6646 74.2541 65.3171 76.8223 65.1829C85.9572 64.7057 92.077 72.9178 92.6411 81.203C93.0272 87.1804 91.0317 93.0684 87.0865 97.5928C82.9373 102.285 76.8079 105.066 70.5708 105.477C62.9951 105.909 55.5558 103.338 49.8794 98.3283C42.766 92.1079 38.7765 83.3268 38.1876 73.9765C37.5651 62.6778 41.3957 51.5828 48.8654 43.0498C56.2847 34.6932 66.1727 29.7297 77.3668 29.0577Z" fill="white"/>
<path d="M120.706 -0.0650629C122.033 -0.232166 124.05 1.13093 124.988 1.97958C127.699 4.43179 128.737 7.62158 128.94 11.1758C129.81 9.10012 129.337 7.68428 129.75 6.66763C130.026 6.41891 129.867 6.48022 130.246 6.48539C130.689 6.6932 130.847 6.85951 131.17 7.19581C133.415 9.53226 134.006 12.3396 133.318 15.4577C132.904 17.3325 132.491 18.36 132.427 20.3071C133.05 18.8979 133.262 17.6417 134.424 16.4731C134.936 15.9573 135.941 14.9094 136.737 15.2799C136.69 16.3479 136.544 18.0495 136.798 19.0704C137.424 21.5786 138.396 23.8035 138.397 26.4675C138.41 29.624 137.146 32.6531 134.89 34.8722C133.151 36.5785 130.207 38.0376 127.682 38.1865C127.408 38.2026 127.018 38.1482 126.814 37.9348C126.757 37.2865 128.543 35.0256 128.952 33.6826C129.478 31.9577 129.882 30.4524 129.171 28.5306C129.165 28.5152 129.031 28.3491 128.998 28.3541C128.009 28.5021 127.785 28.587 126.852 28.3544C124.099 26.9134 124.868 23.8246 125.027 21.2339C122.867 25.4357 119.208 26.7847 119.94 31.9617C120.175 33.6311 122.448 37.3828 122.456 37.7312C121.809 38.654 118.883 37.525 118.05 37.1291C115.016 35.6596 112.685 33.0616 111.559 29.8963C110.417 26.623 110.677 23.2919 112.119 20.1758C112.717 18.8845 113.555 17.2308 113.984 15.9086C114.188 15.2909 114.341 14.6579 114.442 14.0158C114.522 13.5161 114.542 12.4006 114.703 12.0706C116.4 11.6254 118.078 15.7231 118.472 16.9892C118.529 15.3494 118.29 13.3439 118.71 11.7972C119.583 8.58349 122.074 6.71769 121.53 3.03634C121.354 1.84672 120.961 1.095 120.724 0.0202298L120.706 -0.0650629ZM116.201 17.2126L116.164 17.3499C115.858 18.481 115.037 20.0631 114.564 21.1936C113.204 24.4394 113.188 27.6711 114.939 30.7672C115.611 31.9551 116.886 33.4708 118.032 34.2062C117.087 31.7619 116.935 29.2388 118.006 26.8539C119.648 23.1974 123.763 21.3135 123.688 16.8689C123.68 16.3749 123.594 15.6805 123.723 15.2122C124.872 14.9259 126.087 17.0241 126.511 17.9028C127.575 20.6884 127.275 22.3401 127.329 25.1588C127.342 25.8522 128.386 26.1609 128.881 25.715C129.964 25.0746 131.301 26.6112 131.594 27.5413C132.477 29.8769 132.278 32.1331 131.391 34.4091C136.892 29.9936 136.12 26.5597 134.541 20.4011C134.154 21.5787 133.939 23.738 133.117 24.2919C131.647 24.525 130.295 21.5943 130.157 20.3605C129.793 17.0636 131.385 14.9766 131.05 11.5714C130.443 12.8171 129.529 14.4913 128.123 14.9827C126.415 15.5788 126.603 11.918 126.494 10.974C126.239 8.76144 125.525 6.26853 123.98 4.59252C123.887 8.57951 122.081 9.48877 121.085 12.848C120.642 14.343 121.218 16.4899 120.485 18.666C120.155 19.6709 119.582 20.5801 118.818 21.3144C118.329 21.7855 117.759 22.3237 117.072 21.9373C116.67 21.171 116.742 18.8195 116.201 17.2126Z" fill="white"/>
<path d="M132.144 104.048C134.475 104.296 131.824 107.16 131.277 107.96C130.95 108.439 130.662 108.945 130.417 109.47C129.185 112.143 129.185 115.672 130.205 118.414C130.339 117.597 130.493 116.794 130.744 115.98C132.66 109.767 140.171 105.059 146.625 105.465C147.06 105.491 147.756 105.595 148.035 105.932C147.529 107.17 147.066 108.239 146.702 109.53C145.742 112.94 145.658 116.292 143.682 119.357C141.599 122.59 137.69 124.273 134.052 125.047L134.522 126.119C135.27 128.11 135.938 129.821 136.333 131.919C130.985 133.803 125.116 134.003 120.762 129.801C118.013 127.146 117.364 123.69 115.584 120.462C115.289 119.926 113.466 117.708 113.467 117.366C113.856 116.911 114.568 116.692 115.144 116.528C119.264 115.358 123.831 116.196 127.546 118.137C126.124 113.306 127.043 106.37 132.144 104.048ZM132.2 130.508C129.758 128.303 126.91 126.874 124.704 123.961C124.363 123.539 124.033 123.187 123.818 122.693L123.844 122.504C124.339 122.393 126.432 124.043 127.003 124.443L132.624 128.394C131.475 125.083 129.812 121.841 126.506 120.386C123.304 118.976 121.103 118.524 117.656 118.725C117.584 119.009 117.667 119.11 117.866 119.429C120.609 123.833 120.902 128.783 126.957 130.307C128.626 130.727 130.511 130.618 132.2 130.508ZM132.523 121.31C133.384 119.934 138.519 113.438 139.873 113.243C139.904 113.289 140 113.422 140.017 113.466C138.112 116.808 136.188 119.24 134.107 122.377C137.362 121.478 140.067 120.312 141.82 117.245C142.943 115.279 143.213 112.84 143.647 110.652C143.789 109.937 144.26 109.11 144.207 108.346C143.972 108.157 144.003 108.226 143.593 108.253C137.141 109.858 132.437 114.422 132.523 121.31Z" fill="white"/>
<path d="M13.7638 18.0023C21.0076 17.7079 27.3315 21.7655 29.2042 28.9031C29.5473 30.2107 29.8859 34.7733 27.408 32.5513C27.114 32.2877 26.6662 30.624 26.4567 30.2047C24.4439 24.9134 19.5406 21.0733 13.6912 21.6392C7.39667 22.2482 2.81707 27.4938 3.59129 33.8113C3.90478 36.3695 5.23926 38.6947 7.29434 40.2633C9.21579 41.7324 11.6468 42.3785 14.0486 42.0585C16.3156 41.7526 18.1816 40.6632 19.5418 38.8369C20.7651 37.2232 21.2826 35.1868 20.9772 33.1886C20.4282 29.5576 17.2936 26.8624 13.5514 27.4822C12.0483 27.7425 10.7063 28.5753 9.81006 29.8038C9.07235 30.834 8.77976 32.1151 8.99773 33.3613C9.38794 35.6726 11.3818 37.2185 13.7355 36.6816C14.7451 36.4429 15.6109 35.8005 16.1289 34.9058C17.0516 33.3098 16.4512 31.7721 14.8341 30.9846L14.7139 30.9267C12.4734 30.3697 12.3953 31.7208 11.7943 33.1368C11.5875 33.0004 11.4201 32.6641 11.3918 32.4333C10.8881 29.4303 15.1222 28.5014 16.893 30.5031C21.4859 35.6949 14.3152 41.8713 9.04454 37.9261C7.63504 36.8637 6.71048 35.2853 6.47631 33.5414C5.45022 25.9115 14.8159 21.9169 20.4047 26.5208C22.6682 28.3854 23.9122 30.6893 24.2137 33.5979C24.5151 36.4644 23.6441 39.331 21.7969 41.5512C19.8129 43.9269 17.1193 45.2921 14.0374 45.5776C10.6245 45.9166 7.21862 44.8717 4.59007 42.6796C1.91171 40.4465 0.239534 37.0735 -0.0397459 33.62C-0.373641 29.7643 0.879417 25.9387 3.43254 23.0192C6.06909 19.9912 9.77925 18.3055 13.7638 18.0023Z" fill="white"/>
<path d="M70.5438 7.55543C78.6171 7.13086 86.7029 8.11028 94.4381 10.4495C95.7855 10.8445 97.1178 11.2883 98.4332 11.7801C99.7066 12.2686 100.742 12.7584 102.081 13.0894C103.688 13.4865 104.637 11.7356 105.779 12.0597C107.106 13.4181 104.206 17.2786 101.643 16.8419C98.5272 16.3111 96.1616 14.9222 93.1797 14.1179C84.7213 11.8359 75.1262 10.8069 66.3911 11.9731C57.1736 12.637 47.0339 16.2347 39.1161 20.7571C37.9978 21.3957 36.106 22.9766 34.8511 22.108C34.472 21.4589 34.8198 20.6046 35.3512 20.1587C44.9744 12.0865 58.1769 8.30446 70.5438 7.55543Z" fill="white"/>
<path d="M109.578 128.636C112.02 128.533 111.131 130.437 109.903 131.528C106.836 134.254 103.3 136.511 99.6174 138.321C88.4102 143.835 75.8453 146.023 63.4222 144.625C60.8816 144.373 58.3581 143.973 55.8649 143.427C54.1827 143.049 52.3324 142.283 50.6493 142.181C49.6026 142.117 49.0259 142.746 48.3333 143.401C46.9724 144.398 46.6367 142.363 47.0911 141.332C49.0681 136.848 53.4072 138.765 56.9636 139.564C58.0498 139.801 59.1442 139.999 60.2448 140.157C63.3452 140.622 66.4724 140.889 69.6071 140.955C82.1746 141.212 94.581 137.764 105.257 131.276C106.673 130.415 108.129 129.419 109.578 128.636Z" fill="white"/>
<path d="M5.40039 53.9137C7.76377 53.8483 9.45625 55.3523 9.33722 57.7116C9.24549 59.5294 8.78626 61.3324 8.52308 63.1256C8.31612 64.6177 8.14318 66.1142 8.00454 67.614C7.81188 69.598 7.74956 72.7825 7.79508 74.8015C8.01974 85.9325 10.9229 96.8474 16.261 106.632C17.5172 108.986 19.0505 111.151 20.422 113.431C21.0421 114.462 20.9414 115.331 19.7707 115.849C18.048 115.736 15.9467 112.583 14.9057 111.088C4.47603 96.1139 1.47188 75.7965 5.56334 58.1911C6.05528 56.074 3.24228 54.8604 5.40039 53.9137Z" fill="white"/>
<path d="M130.932 42.5422L130.983 42.5421C131.568 42.5359 131.844 42.5262 132.263 42.999C133.555 44.4592 134.901 47.1816 135.713 48.9477C140.429 59.1045 142.472 70.288 141.649 81.4462C141.479 83.9353 141.178 86.4135 140.748 88.8708C140.479 90.3766 139.756 93.23 139.775 94.5806L139.778 94.7328C140.336 95.742 141.386 96.5113 140.166 97.4688C137.692 98.0102 135.756 95.7261 136.011 93.4032C136.195 91.7202 136.621 89.9556 136.912 88.2687C137.181 86.6733 137.4 85.0689 137.568 83.4596C138.34 76.293 137.777 67.356 136.186 60.328C135.096 55.4349 133.5 50.6668 131.426 46.0996C131.101 45.393 130.399 44.0749 130.415 43.2938C130.422 42.962 130.694 42.75 130.932 42.5422Z" fill="white"/>
<path d="M29.2144 118.916C33.7469 118.168 39.3126 121.197 39.8081 126.011C40.1452 129.285 38.612 132.309 35.1116 132.82C34.2634 132.943 32.3439 132.709 32.3332 131.631C32.6468 131.418 33.126 131.431 33.5278 131.36C34.7322 131.145 35.6407 130.585 36.3377 129.587C36.9827 128.676 37.2244 127.543 37.0061 126.45C36.2821 122.638 31.8037 121.404 28.4498 122.104C24.917 122.842 22.6336 125.109 20.6953 127.981C18.0248 132.278 14.0518 138.579 7.7031 136.807C6.62239 136.505 4.00215 134.529 4.5318 133.21C5.08485 133.067 6.34871 134.007 6.9901 134.175C13.6297 135.908 16.3696 128.442 19.6484 124.332C22.1617 121.182 25.1898 119.395 29.2144 118.916Z" fill="white"/>
<path d="M21.096 135.133C26.9775 134.987 27.2471 139.633 32.5151 140.839C34.361 141.261 36.1232 141.005 37.9084 140.423C38.69 140.169 40.2421 139.135 40.8716 139.25L40.9349 139.496C40.7795 140.054 40.5578 140.248 40.2153 140.672C37.6611 143.834 33.0749 143.933 29.577 142.44C27.6929 141.636 26.3115 140.267 24.8052 138.926C20.9424 135.649 17.6937 139.923 14.182 141.435C10.7986 142.891 7.08105 142.009 5.47929 138.493C5.31374 138.129 5.23432 137.822 5.38786 137.473C5.99934 137.423 6.70074 138.248 7.25499 138.619C12.9242 142.423 15.6511 135.845 21.096 135.133Z" fill="white"/>
<path d="M20.6026 140.407C23.0374 140.265 24.7968 141.568 26.5309 143.102C30.0347 146.2 35.0537 146.242 39.0394 144.042C39.4326 143.825 40.5166 143.193 40.8592 143.518C40.8464 143.975 40.4069 144.58 40.0847 144.91C35.7277 149.37 28.9115 148.612 24.6264 144.825C20.0212 140.567 18.1028 144.572 13.5085 146.161C10.13 147.33 6.42659 145.894 5.18623 142.491C5.0889 142.223 5.0694 141.92 5.20604 141.664L5.40129 141.62C5.98076 141.89 6.60724 142.616 7.13589 142.989C11.1651 145.841 14.4252 142.985 18.0043 141.09C18.7347 140.703 19.757 140.518 20.6026 140.407Z" fill="white"/>
<path d="M30.7989 124.282C33.1329 124.208 35.8273 125.832 34.6253 128.612C34.4989 128.905 34.3535 129.008 34.0601 129.107L33.9185 129.014C33.5662 126.898 32.2619 125.783 30.118 126.97C27.8481 128.227 27.8087 131.484 29.0727 133.496C30.4861 135.744 33.1371 136.966 35.7979 136.789C37.6194 136.686 38.7028 136.144 40.1962 135.198C40.521 135.001 40.7469 134.828 41.1106 134.992L41.1941 135.253C40.8883 137.311 38.2489 138.901 36.3506 139.208C33.7191 139.708 31.4301 138.931 29.2055 137.548C24.0115 134.319 23.7997 125.38 30.7989 124.282Z" fill="white"/>
</g>
<defs>
<clipPath id="clip0_2059_262">
<rect width="148" height="148" fill="white"/>
</clipPath>
</defs>
</svg>
